<svg width="221" height="60" viewBox="0 0 221 60" fill="none" xmlns="http://www.w3.org/2000/svg">
<path d="M106.963 7.45419V32.4718H111.926V37.7017H100.919V7.45419H106.963Z" fill="white"/>
<path d="M113.157 11.4117C113.517 10.4198 114.037 9.59823 114.707 8.94699C115.378 8.29576 116.198 7.81484 117.149 7.50425C118.099 7.18364 119.16 7.03336 120.341 7.03336C121.521 7.03336 122.592 7.20368 123.553 7.53431C124.513 7.86494 125.354 8.36589 126.054 9.02715C126.755 9.68841 127.295 10.51 127.675 11.4918C128.045 12.4737 128.235 13.6059 128.235 14.9083V30.2475C128.235 31.57 128.045 32.7222 127.675 33.7041C127.305 34.6859 126.765 35.5075 126.054 36.1688C125.354 36.83 124.513 37.331 123.553 37.6616C122.592 37.9922 121.521 38.1626 120.341 38.1626C119.16 38.1626 118.099 38.0023 117.149 37.6917C116.198 37.3711 115.388 36.8901 114.707 36.2189C114.027 35.5576 113.517 34.726 113.157 33.7341C112.796 32.7422 112.616 31.58 112.616 30.2575V14.9184C112.616 13.5958 112.796 12.4336 113.157 11.4417V11.4117ZM118.66 30.6583C118.66 31.0891 118.71 31.4398 118.81 31.7203C118.91 31.9908 119.04 32.2213 119.2 32.3916C119.36 32.5619 119.55 32.6922 119.76 32.7823C119.981 32.8725 120.201 32.9126 120.431 32.9126C120.661 32.9126 120.881 32.8725 121.101 32.7823C121.321 32.6922 121.501 32.5619 121.662 32.3916C121.822 32.2213 121.952 32.0008 122.052 31.7203C122.152 31.4498 122.202 31.0891 122.202 30.6583V14.4976C122.202 14.0667 122.152 13.706 122.052 13.4155C121.952 13.1249 121.822 12.9045 121.662 12.7442C121.501 12.5839 121.321 12.4637 121.101 12.3735C120.881 12.2833 120.661 12.2433 120.431 12.2433C120.201 12.2433 119.981 12.2833 119.76 12.3735C119.54 12.4637 119.36 12.5839 119.2 12.7442C119.04 12.9045 118.91 13.1249 118.81 13.4155C118.71 13.706 118.66 14.0667 118.66 14.4976V30.6583Z" fill="white"/>
<path d="M135.66 30.6583C135.66 31.029 135.7 31.3596 135.79 31.6301C135.88 31.9007 135.99 32.1311 136.13 32.3214C136.27 32.5118 136.45 32.6521 136.651 32.7523C136.851 32.8525 137.051 32.9026 137.251 32.9026C137.511 32.9026 137.751 32.8424 137.981 32.7322C138.212 32.622 138.412 32.4417 138.582 32.1912C138.752 31.9507 138.902 31.6402 139.012 31.2795C139.122 30.9188 139.182 30.498 139.182 30.007V25.1678H137.201V21.2404H145.226V37.7017H141.043V34.6759H140.653C140.313 35.8281 139.672 36.6898 138.752 37.2709C137.831 37.8419 136.821 38.1325 135.73 38.1325C134.98 38.1325 134.239 37.9822 133.509 37.6816C132.778 37.3811 132.118 36.9002 131.548 36.2589C130.967 35.6077 130.507 34.7861 130.147 33.7943C129.787 32.8024 129.606 31.6101 129.606 30.2275V14.8883C129.606 13.5658 129.787 12.4036 130.147 11.4117C130.507 10.4198 131.027 9.59823 131.698 8.94699C132.368 8.29576 133.189 7.81484 134.139 7.50425C135.09 7.18364 136.15 7.03336 137.331 7.03336C138.512 7.03336 139.582 7.20368 140.543 7.53431C141.503 7.86494 142.344 8.36589 143.044 9.02715C143.745 9.68841 144.285 10.51 144.665 11.4918C145.036 12.4737 145.226 13.6059 145.226 14.9083V19.7876H139.182V14.5176C139.182 14.0868 139.132 13.7261 139.032 13.4355C138.932 13.145 138.802 12.9246 138.642 12.7643C138.482 12.604 138.302 12.4837 138.081 12.3936C137.861 12.3034 137.641 12.2633 137.411 12.2633C137.181 12.2633 136.961 12.3034 136.741 12.3936C136.521 12.4837 136.34 12.604 136.18 12.7643C136.02 12.9246 135.89 13.145 135.79 13.4355C135.69 13.7261 135.64 14.0868 135.64 14.5176V30.6783L135.66 30.6583Z" fill="white"/>
<path d="M146.656 23.8955V37.7017H152.7V17.854L146.656 23.8955Z" fill="#F62459"/>
<path d="M152.7 7.45419H146.656V15.3492L152.7 9.2977V7.45419Z" fill="#F62459"/>
<path d="M186.57 23.8955V37.7017H192.603V17.854L186.57 23.8955Z" fill="#F62459"/>
<path d="M192.603 7.45419H186.57V15.3492L192.603 9.2977V7.45419Z" fill="#F62459"/>
<path d="M163.656 18.1745V14.4975C163.656 13.7762 163.506 13.2251 163.206 12.8344C162.906 12.4436 162.476 12.2533 161.935 12.2533C161.395 12.2533 160.965 12.4436 160.665 12.8344C160.365 13.2251 160.214 13.7762 160.214 14.4975V16.5314C160.214 16.9622 160.254 17.353 160.345 17.6936C160.435 18.0343 160.605 18.3549 160.865 18.6454C161.125 18.936 161.505 19.2265 162.005 19.5271C162.506 19.8277 163.196 20.1783 164.057 20.5891L165.478 21.2404C166.278 21.6111 166.958 22.0419 167.509 22.5128C168.059 22.9837 168.489 23.5447 168.83 24.1759C169.16 24.8071 169.4 25.5686 169.54 26.4403C169.68 27.3219 169.76 28.3439 169.76 29.5261V30.2174C169.76 32.7523 169.07 34.706 167.689 36.0686C166.308 37.4412 164.367 38.1225 161.865 38.1225C159.364 38.1225 157.453 37.4512 156.132 36.0886C154.811 34.736 154.151 32.7723 154.151 30.2174V26.9813H160.194V30.6583C160.194 31.3796 160.345 31.9307 160.645 32.3214C160.945 32.7122 161.385 32.9025 161.965 32.9025C162.516 32.9025 162.946 32.7122 163.256 32.3415C163.576 31.9708 163.727 31.4197 163.727 30.6983V28.5342C163.727 28.0734 163.686 27.6826 163.596 27.342C163.506 27.0113 163.346 26.7108 163.096 26.4302C162.856 26.1597 162.496 25.8792 162.016 25.5886C161.545 25.2981 160.905 24.9675 160.094 24.5967L158.453 23.8153C157.643 23.4446 156.973 23.0137 156.422 22.5228C155.872 22.0319 155.432 21.4608 155.101 20.7995C154.771 20.1383 154.531 19.3668 154.391 18.4851C154.251 17.6034 154.171 16.5815 154.171 15.3993V14.8783C154.171 12.3434 154.831 10.3997 156.152 9.04717C157.473 7.6946 159.374 7.01331 161.845 7.01331C164.317 7.01331 166.278 7.6946 167.629 9.06721C168.98 10.4398 169.66 12.3735 169.66 14.8783V18.1645H163.666L163.656 18.1745Z" fill="white"/>
<path d="M185.449 12.6841H181.047V37.7017H175.003V12.6841H170.601V7.45419H185.439V12.6841H185.449Z" fill="white"/>
<path d="M200.118 12.6841V19.988H204.821V25.218H200.118V37.7017H194.074V7.45419H205.081V12.6841H200.118Z" fill="white"/>
<path d="M211.675 7.45419L213.095 20.9298H213.486L214.957 7.45419H221L216.257 29.3158V37.7017H210.214V29.3158L205.641 7.45419H211.685H211.675Z" fill="white"/>
<path d="M106.633 45.807V46.8691H104.382V53.1109H103.181V46.8691H100.93V45.807H106.633Z" fill="white"/>
<path d="M114.257 46.0877C114.637 46.278 114.938 46.5486 115.148 46.8992C115.358 47.2499 115.468 47.6607 115.468 48.1216C115.468 48.5824 115.338 49.0333 115.078 49.404C114.817 49.7747 114.477 50.0352 114.047 50.1855L115.588 53.101H114.257L112.866 50.446H111.235V53.101H110.035V45.7871H112.916C113.427 45.7871 113.867 45.8873 114.247 46.0777L114.257 46.0877ZM112.826 49.414C113.257 49.414 113.597 49.2938 113.857 49.0633C114.107 48.8329 114.237 48.5223 114.237 48.1316C114.237 47.7408 114.107 47.4302 113.857 47.1998C113.607 46.9694 113.257 46.8491 112.826 46.8491H111.245V49.414H112.826Z" fill="white"/>
<path d="M121.101 45.807H122.532L125.254 53.1209H123.973L123.283 51.3175H120.291L119.61 53.1209H118.37L121.101 45.807ZM122.952 50.2856L121.782 47.0995L120.621 50.2856H122.942H122.952Z" fill="white"/>
<path d="M128.505 45.807H129.596L133.148 50.9869V45.807H134.329V53.1209H133.238L129.686 47.9411V53.1209H128.505V45.807Z" fill="white"/>
<path d="M139.602 51.7684C139.922 52.0289 140.333 52.1592 140.843 52.1592C141.283 52.1592 141.643 52.059 141.924 51.8686C142.194 51.6782 142.334 51.4077 142.334 51.0671C142.334 50.8266 142.264 50.6262 142.114 50.486C141.964 50.3457 141.763 50.2355 141.503 50.1553C141.243 50.0752 140.883 49.995 140.423 49.9149C139.952 49.8347 139.542 49.7245 139.212 49.5843C138.872 49.444 138.602 49.2436 138.391 48.9631C138.181 48.6825 138.071 48.3219 138.071 47.871C138.071 47.4502 138.181 47.0795 138.401 46.7489C138.622 46.4182 138.922 46.1678 139.322 45.9874C139.712 45.8071 140.162 45.7169 140.673 45.7169C141.183 45.7169 141.663 45.8171 142.074 46.0075C142.484 46.1978 142.804 46.4683 143.044 46.809C143.284 47.1496 143.404 47.5404 143.434 47.9812H142.254C142.214 47.6005 142.044 47.2999 141.763 47.0695C141.473 46.839 141.113 46.7288 140.683 46.7288C140.253 46.7288 139.922 46.819 139.662 47.0094C139.412 47.1897 139.282 47.4502 139.282 47.7908C139.282 48.0313 139.352 48.2117 139.502 48.3519C139.652 48.4922 139.852 48.5924 140.102 48.6625C140.353 48.7326 140.713 48.8128 141.173 48.8929C141.643 48.9731 142.054 49.0833 142.394 49.2236C142.734 49.3638 143.014 49.5642 143.224 49.8448C143.444 50.1153 143.544 50.476 143.544 50.9168C143.544 51.3576 143.434 51.7384 143.204 52.079C142.974 52.4197 142.654 52.6902 142.244 52.8805C141.833 53.0709 141.363 53.1711 140.843 53.1711C140.263 53.1711 139.762 53.0709 139.322 52.8605C138.882 52.6501 138.542 52.3595 138.291 51.9888C138.041 51.6181 137.921 51.1873 137.911 50.7064L139.092 50.7264C139.122 51.1573 139.302 51.5079 139.622 51.7684H139.602Z" fill="white"/>
<path d="M151.289 46.0877C151.669 46.278 151.969 46.5486 152.179 46.8992C152.39 47.2499 152.49 47.6607 152.49 48.1216C152.49 48.5824 152.39 48.9932 152.179 49.3439C151.969 49.6945 151.679 49.9651 151.289 50.1554C150.909 50.3458 150.468 50.446 149.968 50.446H148.287V53.101H147.086V45.7871H149.968C150.468 45.7871 150.909 45.8873 151.289 46.0777V46.0877ZM149.858 49.414C150.288 49.414 150.628 49.2938 150.889 49.0633C151.139 48.8329 151.269 48.5223 151.269 48.1316C151.269 47.7408 151.139 47.4202 150.889 47.1898C150.638 46.9593 150.298 46.8491 149.868 46.8491H148.287V49.414H149.858Z" fill="white"/>
<path d="M161.015 52.7002C160.474 53.0208 159.864 53.1811 159.174 53.1811C158.483 53.1811 157.873 53.0208 157.333 52.7002C156.792 52.3796 156.372 51.9388 156.072 51.3777C155.772 50.8166 155.622 50.1754 155.622 49.4641C155.622 48.7527 155.772 48.1115 156.072 47.5504C156.372 46.9894 156.792 46.5485 157.333 46.2279C157.873 45.9073 158.483 45.747 159.174 45.747C159.864 45.747 160.474 45.9073 161.015 46.2279C161.555 46.5485 161.975 46.9894 162.275 47.5504C162.576 48.1115 162.726 48.7527 162.726 49.4641C162.726 50.1754 162.576 50.8066 162.275 51.3777C161.975 51.9388 161.555 52.3796 161.015 52.7002ZM157.973 51.7785C158.323 52.0089 158.723 52.1191 159.174 52.1191C159.624 52.1191 160.024 52.0089 160.374 51.7785C160.725 51.548 160.995 51.2374 161.195 50.8267C161.385 50.4159 161.485 49.965 161.485 49.454C161.485 48.9431 161.385 48.4922 161.195 48.0814C161.005 47.6707 160.725 47.3601 160.374 47.1296C160.024 46.8992 159.624 46.789 159.174 46.789C158.723 46.789 158.323 46.8992 157.973 47.1296C157.623 47.3601 157.353 47.6707 157.152 48.0814C156.962 48.4922 156.862 48.9431 156.862 49.454C156.862 49.965 156.962 50.4159 157.152 50.8267C157.343 51.2374 157.623 51.548 157.973 51.7785Z" fill="white"/>
<path d="M170.49 46.0877C170.87 46.278 171.17 46.5486 171.381 46.8992C171.591 47.2499 171.701 47.6607 171.701 48.1216C171.701 48.5824 171.571 49.0333 171.311 49.404C171.05 49.7747 170.71 50.0352 170.28 50.1855L171.821 53.101H170.49L169.099 50.446H167.468V53.101H166.268V45.7871H169.149C169.66 45.7871 170.1 45.8873 170.48 46.0777L170.49 46.0877ZM169.059 49.414C169.489 49.414 169.83 49.2938 170.09 49.0633C170.34 48.8329 170.47 48.5223 170.47 48.1316C170.47 47.7408 170.34 47.4302 170.09 47.1998C169.84 46.9694 169.489 46.8491 169.059 46.8491H167.478V49.414H169.059Z" fill="white"/>
<path d="M180.196 45.807V46.8691H177.945V53.1109H176.744V46.8691H174.493V45.807H180.196Z" fill="white"/>
<path d="M184.709 45.807H186.139L188.861 53.1209H187.58L186.89 51.3175H183.898L183.218 53.1209H181.977L184.709 45.807ZM186.56 50.2856L185.389 47.0995L184.228 50.2856H186.55H186.56Z" fill="white"/>
<path d="M196.356 45.807V46.8691H194.104V53.1109H192.904V46.8691H190.652V45.807H196.356Z" fill="white"/>
<path d="M200.968 45.807V53.1209H199.768V45.807H200.968Z" fill="white"/>
<path d="M209.903 52.7002C209.363 53.0208 208.753 53.1811 208.062 53.1811C207.372 53.1811 206.762 53.0208 206.221 52.7002C205.681 52.3796 205.261 51.9388 204.961 51.3777C204.66 50.8166 204.51 50.1754 204.51 49.4641C204.51 48.7527 204.66 48.1115 204.961 47.5504C205.261 46.9894 205.681 46.5485 206.221 46.2279C206.762 45.9073 207.372 45.747 208.062 45.747C208.753 45.747 209.363 45.9073 209.903 46.2279C210.444 46.5485 210.864 46.9894 211.164 47.5504C211.464 48.1115 211.614 48.7527 211.614 49.4641C211.614 50.1754 211.464 50.8066 211.164 51.3777C210.864 51.9388 210.444 52.3796 209.903 52.7002ZM206.862 51.7785C207.212 52.0089 207.612 52.1191 208.062 52.1191C208.513 52.1191 208.913 52.0089 209.263 51.7785C209.613 51.548 209.883 51.2374 210.084 50.8267C210.274 50.4159 210.374 49.965 210.374 49.454C210.374 48.9431 210.274 48.4922 210.084 48.0814C209.893 47.6707 209.613 47.3601 209.263 47.1296C208.913 46.8992 208.513 46.789 208.062 46.789C207.612 46.789 207.212 46.8992 206.862 47.1296C206.511 47.3601 206.241 47.6707 206.041 48.0814C205.851 48.4922 205.751 48.9431 205.751 49.454C205.751 49.965 205.851 50.4159 206.041 50.8267C206.231 51.2374 206.511 51.548 206.862 51.7785Z" fill="white"/>
<path d="M215.167 45.807H216.257L219.809 50.9869V45.807H220.99V53.1209H219.899L216.347 47.9411V53.1209H215.167V45.807Z" fill="white"/>
<path d="M75.6045 49.4841C75.4044 49.4641 75.1642 49.6544 74.9741 49.7847C74.5939 50.0552 74.2237 50.3658 73.8534 50.6563L73.7034 50.496C74.734 49.0232 75.2443 47.3701 75.4644 45.6168C75.5244 45.1258 75.7346 44.9755 76.1948 44.9154C78.216 44.6048 79.927 43.7131 81.1878 42.07C81.3879 41.8095 81.4279 41.4188 81.548 41.0881C81.2178 40.9879 80.8876 40.8276 80.5474 40.8176C79.867 40.7976 79.1966 40.8677 78.5162 40.8978C78.4762 40.8377 78.4461 40.7775 78.4061 40.7174C79.5768 40.3067 79.5268 39.3448 79.5768 38.4131C79.7569 34.7461 79.947 31.0691 80.1171 27.4021C80.2272 25.0777 80.2272 25.0677 78.4061 23.6249C78.186 23.4446 77.8658 23.3244 77.5756 23.3043C73.4132 23.0138 69.2307 22.8334 65.0783 22.4427C63.2872 22.2724 61.7263 22.593 60.2054 23.4546C59.3649 23.9255 59.0948 24.3663 59.2348 25.3081C59.9553 30.0371 60.6857 34.7761 61.3861 39.5151C61.4962 40.2566 61.8264 40.7074 62.5668 40.8978C63.1972 41.0581 63.8175 41.2885 64.4379 41.4989C62.9971 41.7193 61.5862 41.8095 60.1654 41.8596C56.173 41.9999 52.1907 42.5008 48.1783 42.07C46.8275 41.9197 46.5574 41.6993 46.2472 40.3968C45.827 38.6134 45.3967 36.82 44.7863 35.0967C44.4161 34.0447 43.8058 33.0428 43.1354 32.1511C42.2949 31.049 41.1242 30.8487 39.9135 31.54C39.3331 31.8706 38.8128 32.4016 38.4126 32.9527C37.7622 33.8544 37.472 34.0447 36.2813 33.8243C36.5115 31.2895 37.1218 28.8148 39.2931 27.342C40.7039 26.3802 40.9841 25.3582 40.774 23.9055C40.774 23.8854 40.774 23.8654 40.774 23.8353C40.7139 18.0844 41.1242 12.3836 42.2148 6.7328C42.3849 5.85113 42.6651 5.06964 43.5756 4.71897C45.7169 3.90743 47.8582 3.09589 50.0194 2.32442C50.6498 2.104 51.3202 2.01383 52.1507 1.81345C47.9482 1.19227 43.9458 0.601143 39.8434 0C39.8434 0.53101 39.8034 0.991886 39.8434 1.43272C39.9235 2.1541 39.6833 2.65505 39.103 3.10591C38.1825 3.8373 37.3119 4.64884 36.4514 5.45037C36.2613 5.63071 36.0912 5.90122 36.0512 6.1517C35.5909 8.95703 35.1707 11.7724 34.7304 14.5777C34.01 19.2466 33.2896 23.9155 32.5592 28.5743C32.339 29.977 31.6686 30.5982 30.2878 30.7886C29.8776 30.8487 29.4673 30.8887 29.0471 30.9388C22.6633 31.7103 16.2896 32.4818 9.90583 33.2633C8.87522 33.3935 7.84461 33.5238 6.78399 33.664C6.91407 34.5156 7.03414 35.2771 7.15421 36.0586C7.76457 36.0285 8.29488 36.0085 9.02531 35.9784C8.44497 36.5094 8.01471 36.8902 7.60447 37.3009C7.44438 37.4612 7.24426 37.6817 7.24426 37.882C7.21424 39.6955 7.22425 41.5089 7.22425 43.4126C7.49441 43.4126 7.71454 43.3725 7.91466 43.4226C8.04473 43.4526 8.22484 43.5929 8.26486 43.7131C8.495 44.5748 8.68511 45.4364 8.89523 46.3582C4.9329 46.5485 3.97234 46.7389 0 46.9293C0.090053 47.0595 0.190112 47.0996 0.290171 47.1296C16.1795 51.3877 29.0771 55.6558 44.9664 59.9139C45.2166 59.9841 45.4868 60.0242 45.7369 59.9841C54.0718 58.6616 62.3967 57.3391 70.7316 56.0065C78.8664 54.7141 80.0071 53.4216 88.1418 52.1291C89.4826 51.9187 90.8234 51.6983 92.1642 51.4779C84.2896 50.7465 83.4291 50.1053 75.5544 49.4841H75.6045ZM40.6939 41.3086C41.2343 40.4169 42.2048 40.2165 42.8352 41.008C43.3455 41.6492 43.7157 42.4608 43.9559 43.2523C44.3661 44.6449 44.266 46.0676 43.8258 47.4502C43.7057 47.841 43.5356 48.2317 43.3155 48.5824C42.435 50.0051 41.1642 49.9249 40.3437 48.372C42.9753 47.4202 42.9753 42.5108 40.6939 41.3186V41.3086ZM10.1159 45.0357C10.0159 45.1158 9.53561 44.9355 9.49559 44.7952C9.24544 43.9937 9.08534 43.1621 8.89523 42.3806C9.06533 41.529 9.1854 40.7575 9.40553 40.0161C9.46557 39.7957 9.90583 39.4951 10.0559 39.5452C10.5062 39.7055 10.236 40.0061 10.1059 40.3167C9.56563 41.6492 9.46557 42.9918 10.3361 44.2341C10.6263 44.6549 10.3361 44.8753 10.1159 45.0357ZM12.4173 35.6478C18.8311 35.1569 25.2448 34.6559 31.7687 34.155C31.7087 34.6459 31.6686 35.0567 31.6086 35.5576C25.1848 35.6378 18.8011 35.7179 12.4173 35.7981C12.4173 35.748 12.4173 35.6979 12.4173 35.6578V35.6478ZM27.4862 41.028C28.1566 40.1464 28.857 40.1664 29.4173 41.0881C30.2178 42.4006 30.2978 43.8634 30.1077 45.3262C30.0277 45.9674 29.8576 46.6287 29.5474 47.1897C29.3273 47.6005 28.857 48.0414 28.4267 48.1315C27.8364 48.2618 27.5162 47.6707 27.216 47.1396C28.4567 46.5285 28.7469 45.3963 28.7869 44.194C28.827 42.9918 28.5968 41.8396 27.4962 41.028H27.4862ZM14.6986 45.0457C14.5886 45.2761 14.3484 45.5366 14.1283 45.5767C13.9782 45.6067 13.658 45.3362 13.568 45.1358C12.8376 43.3124 12.8275 41.4689 13.568 39.6454C13.8381 38.9841 14.1883 38.9942 14.6686 39.6153C13.7081 41.008 13.7381 42.4608 14.2184 43.9636C14.2784 44.144 14.4285 44.2942 14.5185 44.4646C14.6086 44.6449 14.7687 44.9054 14.7087 45.0256L14.6986 45.0457ZM14.8087 37.6015H24.6145V38.3129C21.3225 38.0924 18.0606 37.872 14.7987 37.6416C14.7987 37.6316 14.7987 37.6115 14.7987 37.6015H14.8087ZM22.3131 44.8353C22.3632 44.715 22.6033 44.6048 22.7534 44.6148C23.5839 44.6549 24.4044 44.7351 25.3149 44.8152C25.3449 45.1459 25.3649 45.4264 25.3949 45.7871H22.083C22.153 45.4865 22.183 45.1459 22.3131 44.8453V44.8353ZM41.8846 54.8243C35.5309 53.3214 29.1471 51.8987 22.7834 50.4459C22.5733 50.3958 22.3632 50.3357 22.153 50.2756C22.153 50.2456 22.163 50.2155 22.173 50.1854C29.8275 51.6282 37.4921 53.0709 45.1466 54.5037C44.0659 54.7942 43.0353 55.0948 41.8846 54.8243ZM51.3102 46.9493C50.92 47.7107 50.5497 48.4021 50.1895 49.1034C50.1195 49.0733 50.0594 49.0533 49.9894 49.0232C50.1195 48.2417 50.2295 47.4703 50.4097 46.6988C50.4397 46.5886 50.7499 46.4784 50.93 46.4684C53.6816 46.298 56.4232 46.1377 59.1748 45.9774C60.4956 45.8973 61.8264 45.8272 63.1772 45.747C63.3673 46.5385 63.5474 47.2699 63.7475 48.1315C59.545 47.7308 55.3926 47.34 51.3102 46.9593V46.9493ZM62.917 27.6225C62.7969 27.0314 62.9971 26.7809 63.6474 26.801C65.8287 26.8911 68.02 26.9913 70.2013 27.0815C72.4026 27.1817 74.6139 27.2719 76.8152 27.3721C77.2054 27.3921 77.5556 27.4422 77.5756 27.9732C77.5956 28.5743 77.2955 28.7146 76.7551 28.6846C74.1336 28.5543 71.5121 28.4541 68.8905 28.3339C67.1695 28.2638 65.4385 28.1836 63.7175 28.1034C63.3573 28.0834 63.0171 28.0734 62.917 27.6025V27.6225ZM63.3673 32.2914C63.0471 31.7604 63.3673 31.3296 64.0177 31.3496C65.7887 31.4198 67.5497 31.4899 69.3208 31.57C71.7822 31.6803 74.2537 31.8005 76.7151 31.9107C77.1754 31.9307 77.5556 31.9808 77.5456 32.5719C77.5256 33.2132 77.1254 33.2232 76.6351 33.1931C74.5639 33.0929 72.4926 33.0028 70.4214 32.9126C68.3102 32.8124 66.1889 32.7222 64.0777 32.602C63.8275 32.592 63.4873 32.4718 63.3773 32.2814L63.3673 32.2914ZM64.7681 37.2909C64.4979 37.2809 64.1177 37.0805 64.0177 36.8601C63.7675 36.3091 64.0577 35.9784 64.7281 36.0085C66.6492 36.0886 68.5603 36.1888 70.4815 36.279C72.4626 36.3692 74.4538 36.4593 76.435 36.5395C76.8852 36.5595 77.2755 36.6297 77.2554 37.2108C77.2354 37.7919 76.8852 37.862 76.4149 37.842C72.5327 37.6616 68.6504 37.4913 64.7781 37.2909H64.7681Z" fill="white"/>
<path d="M54.0717 16.802C54.1918 17.7237 54.2218 17.7638 55.1623 17.7738C63.147 17.9241 71.1017 18.395 79.0164 19.467C79.6467 19.5572 80.177 19.6173 80.187 18.7256C80.4872 18.7256 80.7474 18.7256 81.0075 18.7256C82.1882 18.7256 82.4884 18.4251 82.4884 17.2628C82.4884 15.229 82.4884 13.1951 82.4884 11.1612C82.4884 10.1293 82.1482 9.83872 81.0075 9.83872C80.047 9.83872 79.9269 9.96897 79.9269 11.1011C79.9269 13.0248 79.9269 14.9384 79.9269 16.8621C79.1464 13.7261 78.0558 10.7404 76.755 7.81487C76.5549 7.37404 76.2948 7.13358 75.8245 7.02337C68.4601 5.29007 60.9857 4.39838 53.4213 4.24809C52.5108 4.22805 52.4207 4.3583 52.5408 5.29007C53.0511 9.12737 53.5614 12.9647 54.0617 16.7919L54.0717 16.802Z" fill="#F62459"/>
<path d="M31.869 16.2008C32.2792 16.0806 32.4193 15.8702 32.4993 15.4895C33.2398 11.7824 34.0002 8.07536 34.7406 4.36831C34.8307 3.90743 35.0008 3.5768 35.4411 3.35639C36.0314 3.06583 36.5817 2.70515 37.1421 2.37452C38.0926 1.82347 38.1326 1.72328 37.8725 0.490936C36.4617 1.1021 35.0708 1.72328 33.66 2.30439C33.2198 2.48473 33.0396 2.74522 32.9396 3.19608C32.1691 6.65265 31.3687 10.0992 30.5882 13.5558C30.4881 13.9866 30.298 14.217 29.8778 14.3673C22.8236 16.8921 15.7695 19.437 8.71534 21.9718C8.08497 22.2022 7.4546 22.4327 6.84424 22.6531V23.685C7.09439 23.6149 7.30451 23.5748 7.50463 23.5047C15.6194 21.0601 23.7442 18.6154 31.869 16.1808V16.2008Z" fill="white"/>
<path d="M52.0009 15.9003C51.9508 15.229 51.8908 14.5477 51.8007 13.8764C51.3905 11.0711 50.9603 8.25575 50.52 5.45041C50.4099 4.76912 50.1298 4.56874 49.5494 4.73906C47.9385 5.19994 46.3175 5.68085 44.7166 6.19182C44.4965 6.26196 44.3364 6.50241 44.1562 6.66272C44.6966 6.81301 45.1268 6.83304 45.5571 6.81301C46.1774 6.78295 46.4976 7.08352 46.5577 7.68466C46.7478 9.66844 46.9179 11.6422 47.118 13.626C47.178 14.187 46.9679 14.5377 46.5076 14.8082C45.8572 15.209 45.2269 15.6298 44.5865 16.0406C44.5865 16.0907 44.5865 16.1407 44.5865 16.1808C46.7778 16.3912 48.9691 16.6116 51.1604 16.792C51.7407 16.8421 52.0409 16.4814 52.0009 15.8802V15.9003Z" fill="#F62459"/>
<path d="M55.0326 32.1011C54.4422 32.071 53.9819 32.4618 54.052 33.093C54.2321 34.9465 54.4322 36.79 54.6924 38.6335C54.7324 38.9241 55.0726 39.3248 55.3527 39.415C56.5234 39.7657 57.7141 40.0462 58.9148 40.3067C59.4251 40.4169 59.7353 40.1063 59.6453 39.5953C59.2951 37.5014 58.9449 35.4074 58.5146 33.3334C58.4446 33.0128 58.0443 32.602 57.7341 32.5119C56.8736 32.2914 55.9631 32.2313 55.0426 32.0911L55.0326 32.1011Z" fill="white"/>
<path d="M31.4186 22.1922C31.6187 21.3206 31.7388 20.4389 31.9189 19.427C24.2243 21.7113 16.6399 23.9556 9.06543 26.1999C9.27555 26.27 9.46567 26.26 9.64577 26.2199C13.8482 25.4985 18.0407 24.7671 22.2432 24.0458C25.1049 23.5548 27.9766 23.0639 30.8382 22.5529C31.0584 22.5128 31.3886 22.3525 31.4286 22.1922H31.4186Z" fill="#F62459"/>
<path d="M8.60497 30.478C8.79508 30.468 8.9852 30.468 9.1653 30.448C13.6579 29.937 18.1506 29.416 22.6432 28.895C25.0346 28.6245 27.416 28.354 29.8074 28.0634C30.0376 28.0334 30.3878 27.853 30.4278 27.6827C30.6379 26.8211 30.758 25.9394 30.9281 24.9675C23.4137 26.791 15.9993 28.5944 8.58496 30.3979C8.58496 30.4279 8.58496 30.448 8.59497 30.478H8.60497Z" fill="#F62459"/>
<path d="M51.4104 39.4751C51.4104 38.1526 51.4804 36.8501 51.3904 35.5476C51.2403 33.3534 50.8401 31.2093 49.8495 29.2256C49.2391 28.0033 48.4286 26.9713 47.1579 26.3701C46.1573 25.8892 45.1067 25.789 43.856 26.0195C46.0673 26.9713 47.1879 28.6745 47.9484 30.6683C48.6488 32.5018 48.969 34.4154 49.059 36.3692C49.109 37.3911 49.059 38.4131 49.059 39.4751H51.3904H51.4104Z" fill="white"/>
<path d="M81.3578 33.9345C81.3078 34.7861 81.2578 35.6277 81.2077 36.4793H81.2177C81.1877 37.0003 81.1177 37.5213 81.1177 38.0423C81.1177 38.5032 81.1977 38.9641 81.2377 39.4149C81.668 39.2446 82.1483 39.1444 82.5285 38.8939C82.8487 38.6936 83.2489 38.3429 83.279 38.0223C83.429 36.4192 83.4791 34.8062 83.5291 33.1931C83.5291 33.0027 83.369 32.7022 83.2089 32.6421C82.5085 32.3916 81.3978 33.1731 81.3478 33.9145L81.3578 33.9345Z" fill="white"/>
</svg>
