<svg width="136" height="88" viewBox="0 0 136 88" fill="none" xmlns="http://www.w3.org/2000/svg">
<path d="M24.6716 72.5767C24.9655 72.5473 25.3182 72.8265 25.5974 73.0175C26.1558 73.4143 26.6995 73.8698 27.2432 74.296L27.4636 74.0609C25.9501 71.9007 25.2006 69.4761 24.8774 66.9046C24.7892 66.1845 24.4806 65.9641 23.8047 65.876C20.8363 65.4204 18.3236 64.1126 16.472 61.7027C16.1782 61.3206 16.1194 60.7475 15.943 60.2626C16.428 60.1157 16.9129 59.8806 17.4125 59.8659C18.4117 59.8365 19.3963 59.9393 20.3955 59.9834C20.4543 59.8952 20.4984 59.8071 20.5572 59.7189C18.8379 59.1164 18.9114 57.7057 18.8379 56.3391C18.5734 50.9609 18.2942 45.568 18.0444 40.1898C17.8827 36.7806 17.8827 36.7659 20.5572 34.6499C20.8804 34.3854 21.3507 34.2091 21.7768 34.1797C27.8898 33.7535 34.0321 33.489 40.1304 32.9159C42.7607 32.6661 45.0531 33.1364 47.2866 34.4001C48.521 35.0907 48.9177 35.7373 48.712 37.1186C47.654 44.0545 46.5813 51.005 45.5527 57.9556C45.391 59.043 44.9061 59.7042 43.8187 59.9834C42.893 60.2185 41.9819 60.5565 41.0708 60.8651C43.1868 61.1884 45.2588 61.3206 47.3454 61.3941C53.2086 61.5998 59.057 62.3346 64.9496 61.7027C66.9333 61.4823 67.3301 61.159 67.7856 59.2487C68.4028 56.633 69.0347 54.0027 69.931 51.4752C70.4747 49.9323 71.3711 48.4628 72.3556 47.155C73.59 45.5386 75.3093 45.2447 77.0873 46.2586C77.9396 46.7436 78.7037 47.5224 79.2915 48.3306C80.2467 49.6531 80.6728 49.9323 82.4214 49.609C82.0835 45.8913 81.1871 42.2617 77.9984 40.1016C75.9264 38.6909 75.515 37.1921 75.8236 35.0613C75.8236 35.032 75.8236 35.0026 75.8236 34.9585C75.9117 26.5238 75.3093 18.1625 73.7075 9.87478C73.4577 8.58165 73.0463 7.43547 71.7091 6.92116C68.5644 5.7309 65.4198 4.54064 62.2458 3.40915C61.32 3.08587 60.3354 2.95362 59.1158 2.65972C65.2875 1.74866 71.1654 0.881677 77.1902 0C77.1902 0.778814 77.249 1.45477 77.1902 2.10133C77.0726 3.15934 77.4253 3.89407 78.2776 4.55533C79.6295 5.62804 80.9079 6.8183 82.1716 7.99387C82.4508 8.25837 82.7006 8.65513 82.7594 9.02249C83.4354 13.137 84.0526 17.2662 84.6991 21.3807C85.7571 28.2284 86.8151 35.076 87.8878 41.909C88.2111 43.9663 89.1957 44.8773 91.2235 45.1565C91.826 45.2447 92.4285 45.3035 93.0457 45.377C102.421 46.5084 111.781 47.6399 121.156 48.7861C122.67 48.9771 124.184 49.1682 125.741 49.3739C125.55 50.6229 125.374 51.7397 125.197 52.8859C124.301 52.8418 123.522 52.8124 122.45 52.7684C123.302 53.5472 123.934 54.1056 124.536 54.708C124.771 54.9432 125.065 55.2664 125.065 55.5603C125.109 58.2201 125.095 60.8798 125.095 63.6718C124.698 63.6718 124.375 63.613 124.081 63.6865C123.89 63.7305 123.625 63.9363 123.566 64.1126C123.228 65.3763 122.949 66.6401 122.641 67.992C128.46 68.2712 129.87 68.5504 135.704 68.8296C135.572 69.0206 135.425 69.0794 135.278 69.1235C111.943 75.3687 93.0016 81.6286 69.6665 87.8738C69.2992 87.9766 68.9024 88.0354 68.535 87.9766C56.2944 86.037 44.0685 84.0973 31.8279 82.1429C19.8812 80.2473 18.206 78.3517 6.25929 76.4561C4.29021 76.1475 2.32114 75.8242 0.352066 75.5009C11.9167 74.4282 13.1805 73.4878 24.7451 72.5767H24.6716ZM75.9411 60.5859C75.1476 59.2781 73.7222 58.9842 72.7965 60.1451C72.0471 61.0855 71.5034 62.2758 71.1507 63.4366C70.5482 65.4792 70.6952 67.5658 71.3417 69.5937C71.5181 70.1668 71.7679 70.7399 72.0911 71.2542C73.3843 73.3408 75.2505 73.2233 76.4554 70.9456C72.5908 69.5496 72.5908 62.3492 75.9411 60.6006V60.5859ZM120.848 66.0523C120.995 66.1698 121.7 65.9053 121.759 65.6996C122.126 64.524 122.361 63.3044 122.641 62.1582C122.391 60.9092 122.214 59.7777 121.891 58.6903C121.803 58.367 121.156 57.9262 120.936 57.9996C120.275 58.2348 120.672 58.6756 120.863 59.1311C121.656 61.0855 121.803 63.0546 120.525 64.8767C120.098 65.4939 120.525 65.8172 120.848 66.0523ZM117.468 52.2834C108.049 51.5634 98.6296 50.8287 89.0487 50.0939C89.1369 50.814 89.1957 51.4165 89.2838 52.1512C98.7178 52.2687 108.093 52.3863 117.468 52.5039C117.468 52.4304 117.468 52.3569 117.468 52.2981V52.2834ZM95.338 60.1744C94.3535 58.8813 93.3248 58.9107 92.5019 60.2626C91.3264 62.1876 91.2088 64.333 91.488 66.4784C91.6056 67.4189 91.8554 68.3887 92.3109 69.2116C92.6342 69.8141 93.3248 70.4607 93.9567 70.5929C94.8237 70.784 95.2939 69.917 95.7348 69.1382C93.9126 68.2418 93.4865 66.5813 93.4277 64.8179C93.3689 63.0546 93.7069 61.3647 95.3233 60.1744H95.338ZM114.118 66.067C114.279 66.405 114.632 66.787 114.955 66.8458C115.176 66.8899 115.646 66.4931 115.778 66.1992C116.851 63.5248 116.866 60.821 115.778 58.1466C115.381 57.1767 114.867 57.1914 114.162 58.1025C115.572 60.1451 115.528 62.2758 114.823 64.48C114.735 64.7445 114.514 64.9649 114.382 65.2147C114.25 65.4792 114.015 65.8613 114.103 66.0376L114.118 66.067ZM113.956 55.1489H99.5554V56.1922C104.39 55.8689 109.18 55.5456 113.971 55.2077C113.971 55.193 113.971 55.1636 113.971 55.1489H113.956ZM102.935 65.7584C102.862 65.5821 102.509 65.4204 102.289 65.4351C101.069 65.4939 99.8639 65.6115 98.5267 65.729C98.4827 66.2139 98.4533 66.6254 98.4092 67.1544H103.273C103.17 66.7135 103.126 66.2139 102.935 65.7731V65.7584ZM74.1925 80.4089C83.5235 78.2047 92.8987 76.1181 102.244 73.9874C102.553 73.9139 102.862 73.8257 103.17 73.7376C103.17 73.6935 103.156 73.6494 103.141 73.6053C91.8995 75.7213 80.6434 77.8374 69.402 79.9387C70.989 80.3648 72.5026 80.8057 74.1925 80.4089ZM60.3501 68.859C60.9232 69.9757 61.4669 70.9897 61.9959 72.0183C62.0988 71.9742 62.187 71.9448 62.2898 71.9007C62.0988 70.7546 61.9372 69.6231 61.6727 68.4916C61.6286 68.33 61.173 68.1683 60.9085 68.1536C56.8675 67.9038 52.8412 67.6687 48.8002 67.4336C46.8605 67.316 44.9061 67.2132 42.9223 67.0956C42.6432 68.2565 42.3786 69.3292 42.0848 70.5929C48.2565 70.0051 54.3547 69.432 60.3501 68.8736V68.859ZM43.3044 40.5131C43.4807 39.6461 43.1868 39.2787 42.2317 39.3081C39.0283 39.4403 35.8102 39.5873 32.6067 39.7195C29.3739 39.8665 26.1264 39.9987 22.8936 40.1457C22.3205 40.1751 21.8062 40.2485 21.7768 41.0274C21.7474 41.909 22.1883 42.1148 22.9818 42.0707C26.8317 41.8796 30.6817 41.7327 34.5317 41.5564C37.0592 41.4535 39.6014 41.3359 42.1288 41.2184C42.6578 41.189 43.1575 41.1743 43.3044 40.4837V40.5131ZM42.6431 47.3607C43.1134 46.5819 42.6432 45.9501 41.688 45.9794C39.0871 46.0823 36.5008 46.1852 33.8999 46.3027C30.285 46.4644 26.6554 46.6407 23.0405 46.8023C22.3646 46.8317 21.8062 46.9052 21.8209 47.7722C21.8503 48.7126 22.4381 48.7273 23.1581 48.6833C26.1999 48.5363 29.2417 48.4041 32.2835 48.2718C35.384 48.1249 38.4993 47.9926 41.5998 47.8163C41.9672 47.8016 42.4668 47.6252 42.6284 47.346L42.6431 47.3607ZM40.5859 54.6934C40.9827 54.6787 41.5411 54.3848 41.688 54.0615C42.0554 53.2533 41.6292 52.7684 40.6447 52.8124C37.8233 52.93 35.0166 53.0769 32.1953 53.2092C29.2857 53.3414 26.3615 53.4737 23.452 53.5913C22.7907 53.6206 22.2176 53.7235 22.247 54.5758C22.2764 55.4281 22.7907 55.5309 23.4814 55.5016C29.1829 55.2371 34.8844 54.9872 40.5712 54.6934H40.5859Z" fill="#1A2D4E"/>
<path d="M56.2944 24.6426C56.1181 25.9945 56.074 26.0533 54.6927 26.068C42.9664 26.2884 31.2842 26.979 19.6607 28.5513C18.735 28.6836 17.9562 28.7718 17.9415 27.4639C17.5006 27.4639 17.1186 27.4639 16.7365 27.4639C15.0026 27.4639 14.5617 27.0231 14.5617 25.3185C14.5617 22.3355 14.5617 19.3525 14.5617 16.3695C14.5617 14.856 15.0613 14.4298 16.7365 14.4298C18.1472 14.4298 18.3235 14.6209 18.3235 16.2814C18.3235 19.1027 18.3235 21.9094 18.3235 24.7307C19.4697 20.1313 21.0714 15.7523 22.9817 11.4615C23.2756 10.815 23.6577 10.4623 24.3483 10.3006C35.1636 7.75848 46.1404 6.45066 57.2496 6.23024C58.5868 6.20085 58.719 6.39188 58.5427 7.75848C57.7933 13.3865 57.0438 19.0145 56.3091 24.6279L56.2944 24.6426Z" fill="white"/>
<path d="M88.9017 23.7604C88.2992 23.5841 88.0935 23.2755 87.9759 22.7171C86.8885 17.2801 85.7717 11.8431 84.6843 6.40606C84.5521 5.7301 84.3023 5.24518 83.6557 4.9219C82.7887 4.49576 81.9805 3.96675 81.1576 3.48183C79.7616 2.67362 79.7029 2.52668 80.0849 0.719238C82.1569 1.61561 84.1994 2.52668 86.2713 3.37896C86.9179 3.64347 87.1824 4.02553 87.3294 4.68679C88.4608 9.75643 89.6364 14.8114 90.7826 19.881C90.9295 20.5129 91.2087 20.8509 91.8259 21.0713C102.186 24.7743 112.545 28.5068 122.905 32.2245C123.831 32.5625 124.757 32.9005 125.653 33.2237V34.7373C125.286 34.6344 124.977 34.5756 124.683 34.4728C112.766 30.8873 100.834 27.3018 88.9017 23.731V23.7604Z" fill="#1A2D4E"/>
<path d="M59.3361 23.3202C59.4095 22.3357 59.4977 21.3365 59.6299 20.3519C60.2324 16.2374 60.8643 12.1082 61.5109 7.99375C61.6725 6.99451 62.0839 6.70062 62.9362 6.95043C65.3021 7.62638 67.6826 8.33172 70.0337 9.08115C70.357 9.18401 70.5921 9.53668 70.8566 9.77179C70.0631 9.99221 69.4312 10.0216 68.7994 9.99221C67.8883 9.94813 67.4181 10.389 67.3299 11.2706C67.0507 14.1802 66.8009 17.075 66.507 19.9846C66.4189 20.8075 66.7274 21.3218 67.4034 21.7185C68.3585 22.3063 69.2843 22.9235 70.2248 23.526C70.2248 23.5994 70.2248 23.6729 70.2248 23.7317C67.0066 24.0403 63.7885 24.3635 60.5704 24.628C59.7181 24.7015 59.2773 24.1725 59.3361 23.2908V23.3202Z" fill="white"/>
<path d="M54.8837 47.0821C55.7507 47.038 56.4267 47.6111 56.3238 48.5368C56.0593 51.2553 55.7654 53.9592 55.3833 56.663C55.3246 57.0891 54.825 57.6769 54.4135 57.8091C52.6942 58.3235 50.9456 58.7349 49.1822 59.117C48.4328 59.2786 47.9773 58.8231 48.1095 58.0737C48.6238 55.0025 49.1381 51.9313 49.77 48.8895C49.8729 48.4193 50.4607 47.8168 50.9162 47.6846C52.1799 47.3613 53.5171 47.2731 54.869 47.0674L54.8837 47.0821Z" fill="#1A2D4E"/>
<path d="M89.5628 32.5484C89.2689 31.27 89.0926 29.9768 88.8281 28.4927C100.128 31.843 111.267 35.1346 122.391 38.4262C122.082 38.5291 121.803 38.5144 121.538 38.4556C115.367 37.3976 109.21 36.3249 103.038 35.2669C98.8351 34.5469 94.6178 33.8268 90.4151 33.0774C90.0918 33.0186 89.6069 32.7835 89.5481 32.5484H89.5628Z" fill="white"/>
<path d="M123.067 44.7017C122.787 44.687 122.508 44.687 122.244 44.6576C115.646 43.9082 109.048 43.144 102.45 42.3799C98.9381 41.9832 95.4408 41.5864 91.9287 41.1603C91.5908 41.1162 91.0765 40.8517 91.0177 40.6019C90.7091 39.3381 90.5328 38.045 90.2829 36.6196C101.319 39.294 112.207 41.9391 123.096 44.5841C123.096 44.6282 123.096 44.6576 123.081 44.7017H123.067Z" fill="white"/>
<path d="M60.2032 57.8963C60.2032 55.9566 60.1004 54.0463 60.2326 52.136C60.453 48.9179 61.0408 45.7733 62.4956 42.8637C63.392 41.071 64.5822 39.5575 66.4484 38.6758C67.9179 37.9704 69.4608 37.8235 71.2977 38.1615C68.0502 39.5575 66.4044 42.0555 65.2876 44.9798C64.259 47.6689 63.7887 50.4756 63.6565 53.341C63.583 54.8398 63.6565 56.3387 63.6565 57.8963H60.2326H60.2032Z" fill="#1A2D4E"/>
<path d="M16.2223 49.7664C16.2958 51.0154 16.3692 52.2498 16.4427 53.4988H16.428C16.4721 54.2629 16.575 55.027 16.575 55.7912C16.575 56.4671 16.4574 57.1431 16.3986 57.8043C15.7667 57.5545 15.0614 57.4076 14.503 57.0402C14.0328 56.7463 13.445 56.232 13.4009 55.7618C13.1805 53.4106 13.107 51.0448 13.0335 48.679C13.0335 48.3998 13.2687 47.9589 13.5038 47.8708C14.5324 47.5034 16.1635 48.6496 16.237 49.737L16.2223 49.7664Z" fill="#1A2D4E"/>
</svg>
