<?xml version="1.0" encoding="utf-8"?>
<!-- Generator: Adobe Illustrator 24.3.0, SVG Export Plug-In . SVG Version: 6.00 Build 0)  -->
<svg version="1.1" id="Layer_1" xmlns="http://www.w3.org/2000/svg" xmlns:xlink="http://www.w3.org/1999/xlink" x="0px" y="0px"
	 viewBox="0 0 192 50.2" enable-background="new 0 0 192 50.2" xml:space="preserve">
<g>
	<g>
		<path fill="#003E4D" d="M78.2,39.2v1h-2.8v7.6h-1.1v-7.6h-2.8v-1H78.2z"/>
		<path fill="#003E4D" d="M83.4,42.5h-0.5c-0.6,0-1,0.2-1.3,0.6c-0.3,0.4-0.4,0.9-0.4,1.5v3.2h-1v-6.2h0.9l0.1,0.9
			c0.2-0.3,0.4-0.5,0.7-0.7c0.3-0.2,0.7-0.3,1.2-0.3h0.3V42.5z"/>
		<path fill="#003E4D" d="M91.6,47.7H91c-0.4,0-0.7-0.1-0.9-0.2c-0.2-0.2-0.3-0.4-0.3-0.7c-0.5,0.7-1.2,1-2.1,1
			c-0.7,0-1.2-0.2-1.7-0.5c-0.4-0.3-0.6-0.8-0.6-1.3c0-0.6,0.2-1.1,0.6-1.4c0.4-0.3,1-0.5,1.9-0.5h1.8v-0.4c0-0.4-0.1-0.7-0.4-1
			c-0.3-0.2-0.7-0.3-1.1-0.3c-0.4,0-0.8,0.1-1.1,0.3c-0.3,0.2-0.5,0.4-0.5,0.8h-1c0.1-0.6,0.3-1.1,0.8-1.4c0.5-0.3,1.1-0.5,1.8-0.5
			c0.8,0,1.4,0.2,1.9,0.6c0.4,0.4,0.7,0.9,0.7,1.7v2.7c0,0.3,0.1,0.5,0.4,0.5h0.3V47.7z M87.9,44.9c-0.9,0-1.4,0.3-1.4,1
			c0,0.3,0.1,0.6,0.4,0.7c0.2,0.2,0.6,0.3,1,0.3c0.6,0,1.1-0.2,1.4-0.5c0.4-0.3,0.5-0.7,0.5-1.3v-0.3H87.9z"/>
		<path fill="#003E4D" d="M99.6,44.2v3.5h-1v-3.4c0-0.6-0.1-1.1-0.4-1.5c-0.3-0.3-0.7-0.5-1.3-0.5c-0.6,0-1,0.2-1.4,0.6
			c-0.3,0.4-0.5,1-0.5,1.7v3.1h-1v-6.2h0.9l0.1,0.8c0.5-0.6,1.2-0.9,2.1-0.9c0.8,0,1.4,0.2,1.8,0.7C99.4,42.6,99.6,43.3,99.6,44.2z"
			/>
		<path fill="#003E4D" d="M103.9,46.6c0.3,0.2,0.7,0.4,1.2,0.4c0.4,0,0.8-0.1,1.1-0.3c0.3-0.2,0.4-0.4,0.4-0.7
			c0-0.2-0.1-0.4-0.2-0.6c-0.1-0.1-0.3-0.2-0.5-0.3c-0.2,0-0.5-0.1-0.9-0.1c-0.5-0.1-1-0.2-1.3-0.3s-0.6-0.3-0.8-0.5s-0.3-0.6-0.3-1
			c0-0.4,0.1-0.7,0.3-1c0.2-0.3,0.5-0.5,0.8-0.7c0.4-0.2,0.8-0.2,1.2-0.2c0.7,0,1.3,0.2,1.8,0.5c0.5,0.3,0.7,0.8,0.8,1.5h-1
			c0-0.3-0.2-0.6-0.5-0.8c-0.3-0.2-0.6-0.3-1-0.3c-0.4,0-0.8,0.1-1,0.3c-0.3,0.2-0.4,0.4-0.4,0.7c0,0.2,0.1,0.4,0.2,0.5
			c0.1,0.1,0.3,0.2,0.5,0.2c0.2,0,0.5,0.1,0.9,0.1c0.5,0.1,1,0.2,1.3,0.3c0.4,0.1,0.6,0.3,0.9,0.5c0.2,0.3,0.3,0.6,0.3,1
			c0,0.4-0.1,0.7-0.3,1c-0.2,0.3-0.5,0.5-0.9,0.7c-0.4,0.2-0.8,0.2-1.2,0.2c-0.8,0-1.5-0.2-2-0.6c-0.5-0.4-0.7-0.9-0.8-1.6h1
			C103.4,46,103.6,46.3,103.9,46.6z"/>
		<path fill="#003E4D" d="M116.2,42.9c0.3,0.5,0.4,1.1,0.4,1.7c0,0.6-0.1,1.2-0.4,1.7c-0.3,0.5-0.6,0.9-1.1,1.1
			c-0.5,0.3-1,0.4-1.5,0.4c-0.5,0-0.9-0.1-1.3-0.3c-0.4-0.2-0.6-0.4-0.8-0.8v3.4h-1v-8.7h0.9l0.1,1c0.5-0.7,1.2-1.1,2.1-1.1
			c0.6,0,1.1,0.1,1.5,0.4C115.6,42,115.9,42.4,116.2,42.9z M115.5,44.6c0-0.7-0.2-1.2-0.6-1.7c-0.4-0.4-0.9-0.6-1.5-0.6
			c-0.4,0-0.8,0.1-1.1,0.3c-0.3,0.2-0.6,0.5-0.7,0.8c-0.2,0.3-0.3,0.7-0.3,1.2c0,0.4,0.1,0.8,0.3,1.2c0.2,0.4,0.4,0.6,0.7,0.8
			c0.3,0.2,0.7,0.3,1.1,0.3c0.6,0,1.1-0.2,1.5-0.6C115.4,45.8,115.5,45.3,115.5,44.6z"/>
		<path fill="#003E4D" d="M119.6,46.3c-0.3-0.5-0.4-1-0.4-1.7c0-0.6,0.1-1.2,0.4-1.7c0.3-0.5,0.6-0.9,1.1-1.1c0.5-0.3,1-0.4,1.6-0.4
			c0.6,0,1.1,0.1,1.6,0.4c0.5,0.3,0.8,0.6,1.1,1.1c0.3,0.5,0.4,1,0.4,1.7c0,0.6-0.1,1.2-0.4,1.7c-0.3,0.5-0.6,0.9-1.1,1.1
			c-0.5,0.3-1,0.4-1.6,0.4c-0.6,0-1.1-0.1-1.6-0.4C120.2,47.1,119.9,46.7,119.6,46.3z M124.1,45.8c0.2-0.4,0.3-0.7,0.3-1.2
			c0-0.4-0.1-0.8-0.3-1.2c-0.2-0.4-0.4-0.6-0.7-0.8c-0.3-0.2-0.7-0.3-1.1-0.3c-0.4,0-0.8,0.1-1.1,0.3c-0.3,0.2-0.6,0.5-0.7,0.8
			c-0.2,0.4-0.3,0.7-0.3,1.2c0,0.4,0.1,0.8,0.3,1.2c0.2,0.4,0.4,0.6,0.7,0.8c0.3,0.2,0.7,0.3,1.1,0.3c0.4,0,0.8-0.1,1.1-0.3
			C123.7,46.4,123.9,46.1,124.1,45.8z"/>
		<path fill="#003E4D" d="M131.4,42.5h-0.5c-0.6,0-1,0.2-1.3,0.6c-0.3,0.4-0.4,0.9-0.4,1.5v3.2h-1v-6.2h0.9l0.1,0.9
			c0.2-0.3,0.4-0.5,0.7-0.7c0.3-0.2,0.7-0.3,1.2-0.3h0.3V42.5z"/>
		<path fill="#003E4D" d="M135.1,39.7v1.7h1.6v0.9h-1.6v3.7c0,0.3,0.1,0.4,0.2,0.6c0.1,0.1,0.3,0.2,0.5,0.2h1.1v0.9h-1.1
			c-0.6,0-1-0.1-1.3-0.4c-0.2-0.3-0.4-0.7-0.4-1.2v-6.4H135.1z"/>
		<path fill="#003E4D" d="M145,47.7h-0.5c-0.4,0-0.7-0.1-0.9-0.2c-0.2-0.2-0.3-0.4-0.3-0.7c-0.5,0.7-1.2,1-2.1,1
			c-0.7,0-1.2-0.2-1.7-0.5c-0.4-0.3-0.6-0.8-0.6-1.3c0-0.6,0.2-1.1,0.6-1.4c0.4-0.3,1-0.5,1.9-0.5h1.8v-0.4c0-0.4-0.1-0.7-0.4-1
			c-0.3-0.2-0.7-0.3-1.1-0.3c-0.4,0-0.8,0.1-1.1,0.3c-0.3,0.2-0.5,0.4-0.5,0.8h-1c0.1-0.6,0.3-1.1,0.8-1.4c0.5-0.3,1.1-0.5,1.8-0.5
			c0.8,0,1.4,0.2,1.9,0.6c0.4,0.4,0.7,0.9,0.7,1.7v2.7c0,0.3,0.1,0.5,0.4,0.5h0.3V47.7z M141.3,44.9c-0.9,0-1.4,0.3-1.4,1
			c0,0.3,0.1,0.6,0.4,0.7c0.2,0.2,0.6,0.3,1,0.3c0.6,0,1.1-0.2,1.4-0.5c0.4-0.3,0.5-0.7,0.5-1.3v-0.3H141.3z"/>
		<path fill="#003E4D" d="M146.7,42.4v-0.9h1.1v-1.7h1v1.7h1.6v0.9h-1.6v3.7c0,0.3,0.1,0.4,0.2,0.6c0.1,0.1,0.3,0.2,0.5,0.2h1.1v0.9
			h-1.1c-0.6,0-1-0.1-1.3-0.4c-0.2-0.3-0.4-0.7-0.4-1.2v-3.7H146.7z"/>
		<path fill="#003E4D" d="M154.2,39.7c0,0.2-0.1,0.3-0.2,0.5c-0.1,0.1-0.3,0.2-0.5,0.2c-0.2,0-0.3-0.1-0.5-0.2
			c-0.1-0.1-0.2-0.3-0.2-0.5c0-0.2,0.1-0.3,0.2-0.5c0.1-0.1,0.3-0.2,0.5-0.2c0.2,0,0.3,0.1,0.5,0.2
			C154.2,39.4,154.2,39.5,154.2,39.7z M154.1,41.5v6.2h-1v-6.2H154.1z"/>
		<path fill="#003E4D" d="M157.3,46.3c-0.3-0.5-0.4-1-0.4-1.7c0-0.6,0.1-1.2,0.4-1.7c0.3-0.5,0.6-0.9,1.1-1.1c0.5-0.3,1-0.4,1.6-0.4
			c0.6,0,1.1,0.1,1.6,0.4c0.5,0.3,0.8,0.6,1.1,1.1c0.3,0.5,0.4,1,0.4,1.7c0,0.6-0.1,1.2-0.4,1.7c-0.3,0.5-0.6,0.9-1.1,1.1
			c-0.5,0.3-1,0.4-1.6,0.4c-0.6,0-1.1-0.1-1.6-0.4C157.9,47.1,157.6,46.7,157.3,46.3z M161.8,45.8c0.2-0.4,0.3-0.7,0.3-1.2
			c0-0.4-0.1-0.8-0.3-1.2c-0.2-0.4-0.4-0.6-0.7-0.8c-0.3-0.2-0.7-0.3-1.1-0.3c-0.4,0-0.8,0.1-1.1,0.3c-0.3,0.2-0.6,0.5-0.7,0.8
			c-0.2,0.4-0.3,0.7-0.3,1.2c0,0.4,0.1,0.8,0.3,1.2c0.2,0.4,0.4,0.6,0.7,0.8c0.3,0.2,0.7,0.3,1.1,0.3c0.4,0,0.8-0.1,1.1-0.3
			C161.4,46.4,161.7,46.1,161.8,45.8z"/>
		<path fill="#003E4D" d="M171.5,44.2v3.5h-1v-3.4c0-0.6-0.1-1.1-0.4-1.5c-0.3-0.3-0.7-0.5-1.3-0.5c-0.6,0-1,0.2-1.4,0.6
			c-0.3,0.4-0.5,1-0.5,1.7v3.1h-1v-6.2h0.9l0.1,0.8c0.5-0.6,1.2-0.9,2.1-0.9c0.8,0,1.4,0.2,1.8,0.7
			C171.3,42.6,171.5,43.3,171.5,44.2z"/>
	</g>
	<g>
		<path fill="#003E4D" d="M71.5,1h5.6v21.1h10.3v4.8H71.5V1z"/>
		<path fill="#003E4D" d="M89.2,22.5c-0.8-1.5-1.2-3.2-1.2-5.1s0.4-3.6,1.2-5.1c0.8-1.5,2-2.6,3.5-3.4c1.5-0.8,3.3-1.2,5.3-1.2
			s3.8,0.4,5.3,1.2c1.5,0.8,2.7,1.9,3.5,3.4c0.8,1.5,1.2,3.2,1.2,5.1c0,1.9-0.4,3.7-1.2,5.1s-2,2.6-3.5,3.4s-3.3,1.2-5.3,1.2
			s-3.8-0.4-5.3-1.2C91.1,25.2,90,24,89.2,22.5z M102.7,17.4c0-1.6-0.4-2.9-1.3-4c-0.9-1-2-1.5-3.5-1.5c-1.4,0-2.6,0.5-3.4,1.5
			s-1.3,2.3-1.3,4c0,1.6,0.4,2.9,1.3,4c0.9,1,2,1.5,3.4,1.5c1.5,0,2.6-0.5,3.5-1.5C102.3,20.4,102.7,19.1,102.7,17.4z"/>
		<path fill="#003E4D" d="M129.1,26.4c0,2.5-0.8,4.5-2.5,6c-1.7,1.5-4.2,2.2-7.7,2.2c-2.7,0-4.9-0.6-6.5-1.8s-2.5-2.9-2.7-5h5.3
			c0.2,0.9,0.7,1.6,1.5,2.1c0.7,0.5,1.7,0.7,2.9,0.7c1.5,0,2.6-0.4,3.4-1.1c0.8-0.7,1.2-1.8,1.2-3.3v-2c-1.4,1.8-3.3,2.6-5.9,2.6
			c-1.7,0-3.2-0.4-4.5-1.2c-1.3-0.8-2.4-1.9-3.1-3.4c-0.8-1.4-1.1-3.1-1.1-5.1c0-1.9,0.4-3.6,1.1-5c0.8-1.5,1.8-2.6,3.1-3.4
			c1.3-0.8,2.9-1.2,4.5-1.2c2.5,0,4.5,1,5.9,2.9l0.4-2.6h4.6V26.4z M124,17.3c0-1.6-0.4-2.9-1.3-3.9c-0.8-1-2-1.5-3.4-1.5
			c-1.4,0-2.5,0.5-3.4,1.5s-1.3,2.3-1.3,3.9c0,1.6,0.4,2.9,1.3,3.9c0.9,1,2,1.5,3.4,1.5c1.4,0,2.5-0.5,3.4-1.5
			C123.6,20.2,124,18.9,124,17.3z"/>
		<path fill="#FA7238" d="M137.7,2.9c0,0.8-0.3,1.5-0.9,2.1c-0.6,0.6-1.3,0.9-2.1,0.9c-0.9,0-1.6-0.3-2.2-0.9
			c-0.6-0.6-0.9-1.3-0.9-2.1c0-0.8,0.3-1.5,0.9-2.1c0.6-0.6,1.3-0.8,2.2-0.8c0.9,0,1.6,0.3,2.1,0.8C137.4,1.4,137.7,2.1,137.7,2.9z"
			/>
		<rect x="132" y="7.9" fill="#003E4D" width="5.2" height="19"/>
		<path fill="#003E4D" d="M138.2,12.3V7.9h3.1V2.6h5.2v5.3h4.3v4.4h-4.3v8.3c0,0.7,0.1,1.1,0.4,1.4c0.3,0.3,0.8,0.4,1.4,0.4h2.7v4.4
			h-4.3c-3.6,0-5.4-1.8-5.4-5.4v-9.2H138.2z"/>
		<path fill="#003E4D" d="M156.1,8.9c1.4-0.8,3.1-1.2,5-1.2c1.9,0,3.6,0.4,5.1,1.1c1.5,0.8,2.6,1.8,3.4,3.2s1.3,3,1.3,4.8
			c0,0.7,0,1.3-0.1,1.8H157v0.1c0.1,1.4,0.6,2.5,1.3,3.3c0.8,0.8,1.8,1.2,3.1,1.2c1.1,0,1.9-0.2,2.6-0.7c0.7-0.5,1.2-1.1,1.4-2h5.1
			c-0.2,1.3-0.7,2.4-1.4,3.4c-0.8,1-1.8,1.8-3,2.4c-1.3,0.6-2.7,0.9-4.3,0.9c-2.1,0-4-0.4-5.5-1.2c-1.5-0.8-2.7-1.9-3.6-3.4
			s-1.2-3.2-1.2-5.1c0-2,0.4-3.7,1.2-5.2C153.6,10.8,154.7,9.7,156.1,8.9z M164.3,12.5c-0.8-0.6-1.8-0.9-2.9-0.9
			c-1.1,0-2.1,0.3-2.9,1c-0.8,0.7-1.2,1.5-1.4,2.6h8.6C165.6,14.1,165.1,13.2,164.3,12.5z"/>
		<path fill="#003E4D" d="M178.3,1v15l7.5-8.1h5.8l-6.8,7.4l7.1,11.6h-6l-4.8-7.7l-2.9,3.1v4.6h-5.2V1H178.3z"/>
	</g>
	<g>
		<path fill="#FA7238" d="M40.7,33.2c-2-5.1-0.9-10.9,2.9-14.7c1.9-1.9,4.2-3.4,6.6-4.6c1-0.5,2-1,3-1.4c5.7-2.3,11.3-3.3,13.1-3.8
			c-5.2,0.2-9.7,0.6-13.7,1.3c-0.8,0.1-1.6,0.3-2.4,0.4c-21.3,4.1-25.9,14.4-27,19.6c-0.3,1.4-0.4,2.7-0.4,4.1
			c-0.1,8.1,2.2,13.8,3.3,16.2h24.2h4.1c2.1-0.1,3.5,0,3.5,0c-3-1.5-5.5-3.2-7.7-4.8C44.9,41.2,42.1,36.8,40.7,33.2z"/>
		<path fill="#003E4D" d="M43.4,26.8c-0.1,1.5,0.2,3,0.7,4.5c1.7,4.2,4.5,7.3,6,8.8V18.2C44.9,20.7,43.6,24.1,43.4,26.8z"/>
		<path fill="#003E4D" d="M41.1,10.3C25,12.2,15.8,16.9,10.3,21.6C4,27.1,0.6,35.2,1,43.6c0.1,3,0.5,5.4,0.8,6.6h17.6
			C5.4,17.3,41.1,10.3,41.1,10.3z"/>
		<path fill="#003E4D" d="M16.5,13c0.4-0.2,0.8-0.4,1.2-0.5c6.6-2.7,13.7-5.7,32.5-7V0H0v28.3C2.3,24.2,7.2,17.6,16.5,13z"/>
	</g>
</g>
</svg>
