<svg width="20" height="20" viewBox="0 0 20 20" fill="none" xmlns="http://www.w3.org/2000/svg">
<g clip-path="url(#clip0_76_536)">
<path d="M10.0173 19.1707C15.0799 19.1707 19.1839 15.0667 19.1839 10.0041C19.1839 4.94146 15.0799 0.837402 10.0173 0.837402C4.95464 0.837402 0.850586 4.94146 0.850586 10.0041C0.850586 15.0667 4.95464 19.1707 10.0173 19.1707Z" fill="#FF5C01"/>
<path d="M15.3195 8.01233L12.3862 5.079C12.3583 5.05116 12.3244 5.03011 12.2871 5.01747C12.2498 5.00484 12.2101 5.00096 12.1711 5.00613C12.132 5.0113 12.0947 5.02539 12.0619 5.0473C12.0292 5.06921 12.002 5.09837 11.9823 5.1325C11.8562 5.36876 11.7795 5.62822 11.757 5.89507C11.7344 6.16192 11.7664 6.43057 11.851 6.68466L9.89146 8.64416C9.40757 8.39431 8.87201 8.26094 8.32746 8.25466C8.00085 8.24782 7.67612 8.30568 7.37198 8.42492C7.06784 8.54416 6.7903 8.72242 6.55538 8.94941C6.50727 8.99753 6.48024 9.06279 6.48024 9.13083C6.48024 9.19887 6.50727 9.26413 6.55538 9.31225L8.40946 11.1665L5.46146 14.5754C5.41882 14.6244 5.39635 14.6878 5.39859 14.7527C5.40083 14.8176 5.42762 14.8792 5.47354 14.9252C5.51947 14.9711 5.58111 14.9979 5.64602 15.0002C5.71094 15.0024 5.77429 14.98 5.82329 14.9373L9.23163 11.9892L11.086 13.8435C11.1342 13.8916 11.1994 13.9186 11.2675 13.9186C11.3355 13.9186 11.4007 13.8916 11.4489 13.8435C11.8452 13.3907 12.0881 12.8241 12.1429 12.2248C12.1976 11.6255 12.0614 11.0242 11.7537 10.5071L13.7132 8.54758C13.9676 8.63111 14.2362 8.66255 14.503 8.64003C14.7698 8.61751 15.0293 8.54149 15.266 8.4165C15.3002 8.39687 15.3295 8.36962 15.3514 8.33686C15.3734 8.30411 15.3875 8.26673 15.3927 8.22764C15.3979 8.18854 15.3939 8.14878 15.3813 8.11144C15.3686 8.0741 15.3475 8.04018 15.3195 8.01233Z" fill="white"/>
</g>
<defs>
<clipPath id="clip0_76_536">
<rect width="20" height="20" fill="white"/>
</clipPath>
</defs>
</svg>
