<svg width="12" height="12" viewBox="0 0 12 12" fill="none" xmlns="http://www.w3.org/2000/svg">
<path d="M11.3308 5.71934L9.74068 5.26493C9.02458 5.06304 8.37228 4.68076 7.84619 4.15467C7.32009 3.62857 6.93782 2.97627 6.73593 2.26018L6.28151 0.67001C6.25866 0.614376 6.21978 0.566791 6.16982 0.533302C6.11986 0.499814 6.06107 0.481934 6.00093 0.481934C5.94078 0.481934 5.88199 0.499814 5.83204 0.533302C5.78207 0.566791 5.7432 0.614376 5.72035 0.67001L5.26593 2.26018C5.06404 2.97627 4.68176 3.62857 4.15567 4.15467C3.62958 4.68076 2.97727 5.06304 2.26118 5.26493L0.671012 5.71934C0.609954 5.73667 0.556217 5.77345 0.517952 5.82408C0.479687 5.87472 0.458984 5.93646 0.458984 5.99993C0.458984 6.0634 0.479687 6.12513 0.517952 6.17577C0.556217 6.22641 0.609954 6.26318 0.671012 6.28051L2.26118 6.73493C2.97727 6.93681 3.62958 7.31909 4.15567 7.84519C4.68176 8.37128 5.06404 9.02358 5.26593 9.73968L5.72035 11.3298C5.73768 11.3909 5.77445 11.4446 5.82509 11.4829C5.87572 11.5212 5.93746 11.5419 6.00093 11.5419C6.0644 11.5419 6.12613 11.5212 6.17677 11.4829C6.22741 11.4446 6.26418 11.3909 6.28151 11.3298L6.73593 9.73968C6.93782 9.02358 7.32009 8.37128 7.84619 7.84519C8.37228 7.31909 9.02458 6.93681 9.74068 6.73493L11.3308 6.28051C11.3919 6.26318 11.4456 6.22641 11.4839 6.17577C11.5222 6.12513 11.5429 6.0634 11.5429 5.99993C11.5429 5.93646 11.5222 5.87472 11.4839 5.82408C11.4456 5.77345 11.3919 5.73667 11.3308 5.71934Z" fill="#FA7238"/>
</svg>
