<svg width="142" height="36" viewBox="0 0 142 36" fill="none" xmlns="http://www.w3.org/2000/svg">
<g opacity="0.84">
<path d="M19.5277 5.27488C17.1846 2.93173 13.3856 2.93173 11.0424 5.27488L2.55716 13.7602C0.214018 16.1033 0.214018 19.9023 2.55716 22.2454L11.0424 30.7307C13.3856 33.0739 17.1846 33.0739 19.5277 30.7307L23.5764 26.682C20.206 25.3817 17.8149 22.1112 17.8149 18.2822C17.8149 14.3007 20.4003 10.923 23.9839 9.73649C23.9139 9.66282 23.8427 9.58982 23.7704 9.51752L19.5277 5.27488Z" fill="white"/>
<path opacity="0.7" d="M23.5767 26.6848C24.5814 27.0724 25.6733 27.2849 26.8147 27.2849C31.7853 27.2849 35.8147 23.2555 35.8147 18.2849C35.8147 13.3143 31.7853 9.28491 26.8147 9.28491C25.8258 9.28491 24.8742 9.44439 23.9842 9.73903C28.4559 14.4401 28.3848 21.8767 23.7708 26.4907L23.5767 26.6848Z" fill="white"/>
</g>
<g opacity="0.84">
<path d="M53.0051 24.75L51.9116 21.6315H46.2618L45.1481 24.75H42.0498L47.5173 10.2105H50.8788L56.3058 24.75H53.0051ZM49.1171 13.572L47.1326 19.1813H51.0611L49.1171 13.572Z" fill="white"/>
<path d="M59.859 24.75H57.024V10.2105H59.859V24.75Z" fill="white"/>
<path d="M72.3664 19.3433C72.3664 22.5428 70.4832 24.9525 67.5672 24.9525C66.2914 24.9525 65.1979 24.4058 64.3879 23.3528V28.6583H61.5732V13.9365H64.1652V15.516C64.9954 14.3618 66.1902 13.734 67.5672 13.734C70.4832 13.734 72.3664 16.164 72.3664 19.3433ZM69.4707 19.3433C69.4707 17.3183 68.3164 16.2248 66.9394 16.2248C65.5624 16.2248 64.4082 17.298 64.4082 19.3433C64.4082 21.3885 65.5624 22.4415 66.9394 22.4415C68.3164 22.4415 69.4707 21.4088 69.4707 19.3433Z" fill="white"/>
<path d="M76.1748 18.8573V24.75H73.3601V10.2105H76.1748V15.354C76.9241 14.3618 77.8556 13.734 79.2731 13.734C81.4398 13.734 82.9383 15.1515 82.9383 17.7638V24.75H80.1438V18.7155C80.1438 17.1158 79.5161 16.2248 78.2403 16.2248C77.1266 16.2248 76.1748 17.1158 76.1748 18.8573Z" fill="white"/>
<path d="M90.9933 24.75V23.4135C90.2845 24.426 89.2113 24.9525 87.733 24.9525C85.4853 24.9525 83.9868 23.6363 83.9868 21.6113C83.9868 19.5053 85.6878 18.3713 88.8468 18.3713C89.4543 18.3713 89.9808 18.4118 90.649 18.4928V17.8448C90.649 16.6298 89.9605 15.921 88.786 15.921C87.571 15.921 86.842 16.6298 86.7408 17.8448H84.2095C84.3715 15.354 86.1738 13.734 88.786 13.734C91.621 13.734 93.2815 15.2933 93.2815 17.946V24.75H90.9933ZM86.6395 21.5303C86.6395 22.4415 87.2875 23.0085 88.3405 23.0085C89.7783 23.0085 90.649 22.2188 90.649 20.9633V20.1938C89.9808 20.0925 89.515 20.052 89.029 20.052C87.4293 20.052 86.6395 20.5583 86.6395 21.5303Z" fill="white"/>
<path d="M105.168 24.75L102.454 14.5845L99.7408 24.75H96.6223L92.8963 10.2105H95.8933L98.2423 20.0723L100.915 10.2105H104.054L106.646 20.1128L109.015 10.2105H112.033L108.286 24.75H105.168Z" fill="white"/>
<path d="M118.344 24.75V23.4135C117.635 24.426 116.562 24.9525 115.084 24.9525C112.836 24.9525 111.338 23.6363 111.338 21.6113C111.338 19.5053 113.039 18.3713 116.198 18.3713C116.805 18.3713 117.332 18.4118 118 18.4928V17.8448C118 16.6298 117.311 15.921 116.137 15.921C114.922 15.921 114.193 16.6298 114.092 17.8448H111.56C111.722 15.354 113.525 13.734 116.137 13.734C118.972 13.734 120.632 15.2933 120.632 17.946V24.75H118.344ZM113.99 21.5303C113.99 22.4415 114.638 23.0085 115.691 23.0085C117.129 23.0085 118 22.2188 118 20.9633V20.1938C117.332 20.0925 116.866 20.052 116.38 20.052C114.78 20.052 113.99 20.5583 113.99 21.5303Z" fill="white"/>
<path d="M131.613 13.9365L127.644 24.75H124.566L120.576 13.9365H123.614L126.186 21.5505L128.778 13.9365H131.613Z" fill="white"/>
<path d="M136.36 24.9323C133.12 24.9323 130.953 22.6845 130.953 19.3028C130.953 16.083 133.201 13.734 136.319 13.734C139.742 13.734 142.01 16.5083 141.503 20.0318H133.829C134.011 21.7935 134.861 22.7655 136.299 22.7655C137.534 22.7655 138.365 22.158 138.689 21.0848H141.483C140.876 23.535 138.992 24.9323 136.36 24.9323ZM136.259 15.7995C134.942 15.7995 134.112 16.65 133.869 18.2498H138.527C138.446 16.7513 137.595 15.7995 136.259 15.7995Z" fill="white"/>
</g>
</svg>
