<svg width="115" height="36" viewBox="0 0 115 36" fill="none" xmlns="http://www.w3.org/2000/svg">
<g opacity="0.84">
<path opacity="0.5" fill-rule="evenodd" clip-rule="evenodd" d="M26.34 6.30034L19.0749 4.35366C18.5734 4.21927 18.1668 4.53126 18.1668 5.0505V12.5719C18.1668 13.0911 18.5734 13.621 19.0749 13.7554L26.34 15.702C26.8416 15.8364 27.2481 15.5244 27.2481 15.0052V7.48384C27.2481 6.9646 26.8416 6.43473 26.34 6.30034ZM19.0749 1.53315C17.0687 0.995592 15.4424 2.24353 15.4424 4.3205V11.8419C15.4424 13.9188 17.0687 16.0383 19.0749 16.5759L26.34 18.5226C28.3462 19.0601 29.9725 17.8122 29.9725 15.7352V8.21384C29.9725 6.13688 28.3462 4.01738 26.34 3.47982L19.0749 1.53315Z" fill="white"/>
<path opacity="0.7" fill-rule="evenodd" clip-rule="evenodd" d="M20.6358 12.4281L11.5544 9.99472C11.0529 9.86033 10.6463 10.1723 10.6463 10.6916V20.0933C10.6463 20.6125 11.0529 21.1424 11.5544 21.2768L20.6358 23.7101C21.1373 23.8445 21.5439 23.5325 21.5439 23.0133V13.6116C21.5439 13.0923 21.1373 12.5624 20.6358 12.4281ZM11.5544 7.1742C9.54822 6.63664 7.92188 7.88458 7.92188 9.96155V19.3633C7.92188 21.4402 9.54822 23.5597 11.5544 24.0973L20.6358 26.5306C22.642 27.0682 24.2683 25.8202 24.2683 23.7433V14.3416C24.2683 12.2646 22.642 10.1451 20.6358 9.60754L11.5544 7.1742Z" fill="white"/>
<path fill-rule="evenodd" clip-rule="evenodd" d="M14.9301 18.5557L4.03244 15.6357C3.53089 15.5013 3.12431 15.8133 3.12431 16.3325V27.6146C3.12431 28.1338 3.53089 28.6637 4.03244 28.7981L14.9301 31.7181C15.4316 31.8525 15.8382 31.5405 15.8382 31.0213V19.7392C15.8382 19.22 15.4316 18.6901 14.9301 18.5557ZM4.03244 12.8152C2.02625 12.2776 0.399902 13.5256 0.399902 15.6025V26.8846C0.399902 28.9616 2.02625 31.0811 4.03244 31.6186L14.9301 34.5386C16.9363 35.0762 18.5626 33.8282 18.5626 31.7513V20.4692C18.5626 18.3923 16.9363 16.2728 14.9301 15.7352L4.03244 12.8152Z" fill="white"/>
</g>
<g opacity="0.84">
<path d="M40.6299 24.456C41.4839 24.848 42.4639 25.044 43.5699 25.044C44.6759 25.044 45.6419 24.855 46.4679 24.477C47.3079 24.085 47.9589 23.539 48.4209 22.839C48.8829 22.125 49.1139 21.292 49.1139 20.34V20.088C49.1139 19.206 48.9109 18.492 48.5049 17.946C48.0989 17.386 47.5809 16.973 46.9509 16.707C46.3349 16.441 45.6979 16.308 45.0399 16.308H44.2629V15.972L48.6939 13.62V10.05H38.2779V12.444H45.7119V12.78L40.9659 15.3V18.24H43.9059C44.3819 18.24 44.8089 18.31 45.1869 18.45C45.5649 18.576 45.8659 18.779 46.0899 19.059C46.3139 19.339 46.4259 19.703 46.4259 20.151V20.361C46.4259 21.019 46.1739 21.565 45.6699 21.999C45.1799 22.433 44.4799 22.65 43.5699 22.65C42.6739 22.65 41.9529 22.419 41.4069 21.957C40.8609 21.481 40.5879 20.851 40.5879 20.067V19.773H37.8999V20.151C37.8999 21.159 38.1379 22.034 38.6139 22.776C39.1039 23.504 39.7759 24.064 40.6299 24.456Z" fill="white"/>
<path fill-rule="evenodd" clip-rule="evenodd" d="M58.7823 10.617C58.0823 10.239 57.2703 10.05 56.3463 10.05H50.2983V24.75H53.0703V19.374H56.3463C57.2423 19.374 58.0403 19.192 58.7403 18.828C59.4543 18.45 60.0143 17.925 60.4203 17.253C60.8403 16.567 61.0503 15.769 61.0503 14.859V14.565C61.0503 13.641 60.8473 12.843 60.4413 12.171C60.0493 11.499 59.4963 10.981 58.7823 10.617ZM57.6693 16.308C57.2633 16.672 56.7313 16.854 56.0733 16.854H53.0703V12.57H56.0733C56.7313 12.57 57.2633 12.752 57.6693 13.116C58.0753 13.48 58.2783 13.977 58.2783 14.607V14.817C58.2783 15.447 58.0753 15.944 57.6693 16.308Z" fill="white"/>
<path fill-rule="evenodd" clip-rule="evenodd" d="M66.716 25.044C65.68 25.044 64.749 24.834 63.923 24.414C63.097 23.994 62.446 23.385 61.97 22.587C61.494 21.789 61.256 20.83 61.256 19.71V19.374C61.256 18.254 61.494 17.295 61.97 16.497C62.446 15.699 63.097 15.09 63.923 14.67C64.749 14.25 65.68 14.04 66.716 14.04C67.752 14.04 68.683 14.25 69.509 14.67C70.335 15.09 70.986 15.699 71.462 16.497C71.938 17.295 72.176 18.254 72.176 19.374V19.71C72.176 20.83 71.938 21.789 71.462 22.587C70.986 23.385 70.335 23.994 69.509 24.414C68.683 24.834 67.752 25.044 66.716 25.044ZM66.716 22.692C67.528 22.692 68.2 22.433 68.732 21.915C69.264 21.383 69.53 20.627 69.53 19.647V19.437C69.53 18.457 69.264 17.708 68.732 17.19C68.214 16.658 67.542 16.392 66.716 16.392C65.904 16.392 65.232 16.658 64.7 17.19C64.168 17.708 63.902 18.457 63.902 19.437V19.647C63.902 20.627 64.168 21.383 64.7 21.915C65.232 22.433 65.904 22.692 66.716 22.692Z" fill="white"/>
<path d="M77.3064 14.586C76.9564 14.782 76.7044 15.09 76.5504 15.51H76.1724V14.334H73.5684V24.75H76.2144V18.828C76.2144 18.086 76.4314 17.54 76.8654 17.19C77.2994 16.826 77.8524 16.644 78.5244 16.644H79.8264V16.6425H82.5246V22.398C82.5246 23.112 82.7346 23.686 83.1546 24.12C83.5886 24.54 84.1486 24.75 84.8346 24.75H87.7746V22.566H85.7586C85.3666 22.566 85.1706 22.356 85.1706 21.936V16.6425H88.0266V14.295H85.1706V11.1H82.5246V14.295H79.8264V14.292H78.5664C78.0904 14.292 77.6704 14.39 77.3064 14.586Z" fill="white"/>
<path fill-rule="evenodd" clip-rule="evenodd" d="M90.6107 24.666C91.1987 24.918 91.8637 25.044 92.6057 25.044C93.3337 25.044 93.9077 24.939 94.3277 24.729C94.7477 24.519 95.0557 24.281 95.2517 24.015C95.4477 23.735 95.5737 23.511 95.6297 23.343H96.0287V23.364C96.0287 23.784 96.1967 24.12 96.5327 24.372C96.8687 24.624 97.2957 24.75 97.8137 24.75H99.5777V22.566H98.7377C98.3457 22.566 98.1497 22.356 98.1497 21.936V18.051C98.1497 16.749 97.7507 15.755 96.9527 15.069C96.1547 14.383 95.0697 14.04 93.6977 14.04C92.8017 14.04 92.0387 14.18 91.4087 14.46C90.7927 14.726 90.2957 15.083 89.9177 15.531C89.5537 15.965 89.2877 16.448 89.1197 16.98L91.5557 17.799C91.6537 17.323 91.8637 16.938 92.1857 16.644C92.5077 16.336 92.9977 16.182 93.6557 16.182C94.3277 16.182 94.8177 16.343 95.1257 16.665C95.4337 16.973 95.5877 17.372 95.5877 17.862V18.45H92.7317C91.9477 18.45 91.2477 18.576 90.6317 18.828C90.0297 19.066 89.5537 19.43 89.2037 19.92C88.8677 20.396 88.6997 20.991 88.6997 21.705C88.6997 22.419 88.8677 23.028 89.2037 23.532C89.5537 24.022 90.0227 24.4 90.6107 24.666ZM94.8737 22.293C94.4117 22.699 93.8097 22.902 93.0677 22.902C92.5077 22.902 92.0807 22.783 91.7867 22.545C91.4927 22.307 91.3457 21.999 91.3457 21.621C91.3457 21.243 91.4857 20.949 91.7657 20.739C92.0457 20.529 92.4307 20.424 92.9207 20.424H95.5877V20.634C95.5877 21.32 95.3497 21.873 94.8737 22.293Z" fill="white"/>
<path d="M105.977 24.162C106.845 24.75 107.958 25.044 109.316 25.044C110.646 25.044 111.703 24.75 112.487 24.162C113.285 23.56 113.684 22.713 113.684 21.621C113.684 20.893 113.495 20.319 113.117 19.899C112.753 19.465 112.249 19.136 111.605 18.912C110.975 18.674 110.268 18.485 109.484 18.345L108.896 18.24C108.42 18.156 108.042 18.037 107.762 17.883C107.482 17.715 107.342 17.463 107.342 17.127C107.342 16.819 107.475 16.581 107.741 16.413C108.007 16.231 108.392 16.14 108.896 16.14C109.4 16.14 109.82 16.252 110.156 16.476C110.506 16.7 110.737 17.078 110.849 17.61L113.306 16.854C113.068 16.014 112.564 15.335 111.794 14.817C111.024 14.299 110.058 14.04 108.896 14.04C107.664 14.04 106.67 14.32 105.914 14.88C105.158 15.426 104.78 16.217 104.78 17.253C104.78 17.939 104.962 18.499 105.326 18.933C105.69 19.367 106.173 19.71 106.775 19.962C107.377 20.2 108.042 20.389 108.77 20.529L109.358 20.634C109.974 20.746 110.422 20.893 110.702 21.075C110.982 21.243 111.122 21.488 111.122 21.81C111.122 22.132 110.975 22.405 110.681 22.629C110.387 22.839 109.932 22.944 109.316 22.944C108.91 22.944 108.532 22.888 108.182 22.776C107.846 22.65 107.559 22.447 107.321 22.167C107.097 21.887 106.936 21.502 106.838 21.012L104.402 21.642C104.584 22.734 105.109 23.574 105.977 24.162Z" fill="white"/>
<path d="M100.462 24.75V10.05H103.108V24.75H100.462Z" fill="white"/>
</g>
</svg>
