<svg width="117" height="36" viewBox="0 0 117 36" fill="none" xmlns="http://www.w3.org/2000/svg">
<g opacity="0.84">
<path fill-rule="evenodd" clip-rule="evenodd" d="M15.1997 33C23.484 33 30.1997 26.2843 30.1997 18C30.1997 9.71574 23.484 3 15.1997 3C6.91542 3 0.199707 9.71574 0.199707 18C0.199707 26.2843 6.91542 33 15.1997 33ZM19.8792 9.98763C20.107 9.17854 19.3218 8.7001 18.6047 9.21098L8.59454 16.3422C7.81687 16.8962 7.93919 18 8.77829 18H11.4142V17.9796H16.5516L12.3656 19.4566L10.5202 26.0124C10.2925 26.8215 11.0776 27.2999 11.7947 26.789L21.8049 19.6579C22.5826 19.1038 22.4602 18 21.6211 18H17.6238L19.8792 9.98763Z" fill="white"/>
</g>
<g opacity="0.84">
<path d="M96.9471 12.654C97.2831 12.962 97.6891 13.116 98.1651 13.116C98.6551 13.116 99.0611 12.962 99.3831 12.654C99.7051 12.346 99.8661 11.94 99.8661 11.436C99.8661 10.932 99.7051 10.526 99.3831 10.218C99.0611 9.90998 98.6551 9.75598 98.1651 9.75598C97.6891 9.75598 97.2831 9.90998 96.9471 10.218C96.6251 10.526 96.4641 10.932 96.4641 11.436C96.4641 11.94 96.6251 12.346 96.9471 12.654Z" fill="white"/>
<path fill-rule="evenodd" clip-rule="evenodd" d="M46.6877 24.288C46.0297 24.596 45.2597 24.75 44.3777 24.75H37.6997V10.05H44.2937C45.1897 10.05 45.9667 10.204 46.6247 10.512C47.2967 10.806 47.8147 11.233 48.1787 11.793C48.5567 12.339 48.7457 12.997 48.7457 13.767V13.977C48.7457 14.649 48.6197 15.202 48.3677 15.636C48.1157 16.056 47.8147 16.385 47.4647 16.623C47.1287 16.847 46.8067 17.008 46.4987 17.106V17.484C46.8067 17.568 47.1427 17.729 47.5067 17.967C47.8707 18.191 48.1787 18.52 48.4307 18.954C48.6967 19.388 48.8297 19.955 48.8297 20.655V20.865C48.8297 21.677 48.6407 22.377 48.2627 22.965C47.8847 23.539 47.3597 23.98 46.6877 24.288ZM45.5117 19.059C45.1477 18.765 44.6577 18.618 44.0417 18.618H40.4717V22.23H44.0417C44.6437 22.23 45.1267 22.083 45.4907 21.789C45.8687 21.495 46.0577 21.075 46.0577 20.529V20.319C46.0577 19.773 45.8757 19.353 45.5117 19.059ZM45.4277 13.011C45.0637 12.717 44.5877 12.57 43.9997 12.57H40.4717V16.098H43.9997C44.5737 16.098 45.0427 15.951 45.4067 15.657C45.7847 15.363 45.9737 14.957 45.9737 14.439V14.229C45.9737 13.697 45.7917 13.291 45.4277 13.011Z" fill="white"/>
<path fill-rule="evenodd" clip-rule="evenodd" d="M55.0813 25.044C54.0453 25.044 53.1143 24.834 52.2883 24.414C51.4623 23.994 50.8113 23.385 50.3353 22.587C49.8593 21.789 49.6213 20.83 49.6213 19.71V19.374C49.6213 18.254 49.8593 17.295 50.3353 16.497C50.8113 15.699 51.4623 15.09 52.2883 14.67C53.1143 14.25 54.0453 14.04 55.0813 14.04C56.1173 14.04 57.0483 14.25 57.8743 14.67C58.7003 15.09 59.3513 15.699 59.8273 16.497C60.3033 17.295 60.5413 18.254 60.5413 19.374V19.71C60.5413 20.83 60.3033 21.789 59.8273 22.587C59.3513 23.385 58.7003 23.994 57.8743 24.414C57.0483 24.834 56.1173 25.044 55.0813 25.044ZM55.0813 22.692C55.8933 22.692 56.5653 22.433 57.0973 21.915C57.6293 21.383 57.8953 20.627 57.8953 19.647V19.437C57.8953 18.457 57.6293 17.708 57.0973 17.19C56.5793 16.658 55.9073 16.392 55.0813 16.392C54.2693 16.392 53.5973 16.658 53.0653 17.19C52.5333 17.708 52.2673 18.457 52.2673 19.437V19.647C52.2673 20.627 52.5333 21.383 53.0653 21.915C53.5973 22.433 54.2693 22.692 55.0813 22.692Z" fill="white"/>
<path d="M70.4518 24.75C69.7658 24.75 69.2058 24.54 68.7718 24.12C68.3518 23.686 68.1418 23.112 68.1418 22.398V16.518H65.5378V14.334H68.1418V11.1H70.7878V14.334H73.6438V16.518H70.7878V21.936C70.7878 22.356 70.9838 22.566 71.3758 22.566H73.3918V24.75H70.4518Z" fill="white"/>
<path d="M75.976 24.162C76.844 24.75 77.957 25.044 79.315 25.044C80.645 25.044 81.702 24.75 82.486 24.162C83.284 23.56 83.683 22.713 83.683 21.621C83.683 20.893 83.494 20.319 83.116 19.899C82.752 19.465 82.248 19.136 81.604 18.912C80.974 18.674 80.267 18.485 79.483 18.345L78.895 18.24C78.419 18.156 78.041 18.037 77.761 17.883C77.481 17.715 77.341 17.463 77.341 17.127C77.341 16.819 77.474 16.581 77.74 16.413C78.006 16.231 78.391 16.14 78.895 16.14C79.399 16.14 79.819 16.252 80.155 16.476C80.505 16.7 80.736 17.078 80.848 17.61L83.305 16.854C83.067 16.014 82.563 15.335 81.793 14.817C81.023 14.299 80.057 14.04 78.895 14.04C77.663 14.04 76.669 14.32 75.913 14.88C75.157 15.426 74.779 16.217 74.779 17.253C74.779 17.939 74.961 18.499 75.325 18.933C75.689 19.367 76.172 19.71 76.774 19.962C77.376 20.2 78.041 20.389 78.769 20.529L79.357 20.634C79.973 20.746 80.421 20.893 80.701 21.075C80.981 21.243 81.121 21.488 81.121 21.81C81.121 22.132 80.974 22.405 80.68 22.629C80.386 22.839 79.931 22.944 79.315 22.944C78.909 22.944 78.531 22.888 78.181 22.776C77.845 22.65 77.558 22.447 77.32 22.167C77.096 21.887 76.935 21.502 76.837 21.012L74.401 21.642C74.583 22.734 75.108 23.574 75.976 24.162Z" fill="white"/>
<path d="M88.2697 17.211C87.8217 17.743 87.5977 18.492 87.5977 19.458V24.75H84.9517V10.05H87.5977V15.615H87.9757C88.0877 15.391 88.2627 15.167 88.5007 14.943C88.7387 14.719 89.0537 14.537 89.4457 14.397C89.8517 14.243 90.3627 14.166 90.9787 14.166C91.7907 14.166 92.4977 14.355 93.0997 14.733C93.7157 15.097 94.1917 15.608 94.5277 16.266C94.8637 16.91 95.0317 17.666 95.0317 18.534V24.75H92.3857V18.744C92.3857 17.96 92.1897 17.372 91.7977 16.98C91.4197 16.588 90.8737 16.392 90.1597 16.392C89.3477 16.392 88.7177 16.665 88.2697 17.211Z" fill="white"/>
<path d="M111.572 24.12C111.152 23.686 110.942 23.112 110.942 22.398V16.518H105.738V24.75H103.092V16.518H100.446V14.334H103.092V12.402C103.092 11.688 103.302 11.121 103.722 10.701C104.156 10.267 104.716 10.05 105.402 10.05H108.132V12.234H106.326C105.934 12.234 105.738 12.444 105.738 12.864V14.334H110.942V11.1H113.588V14.334H116.444V16.518H113.588V21.936C113.588 22.356 113.784 22.566 114.176 22.566H116.192V24.75H113.252C112.566 24.75 112.006 24.54 111.572 24.12Z" fill="white"/>
<path d="M96.8421 14.334V24.75H99.4881V14.334H96.8421Z" fill="white"/>
<path d="M61.9337 10.05V24.75H64.5797V10.05H61.9337Z" fill="white"/>
</g>
</svg>
