<svg width="115" height="36" viewBox="0 0 115 36" fill="none" xmlns="http://www.w3.org/2000/svg">
<g opacity="0.84">
<path opacity="0.5" fill-rule="evenodd" clip-rule="evenodd" d="M26.3401 6.30034L19.075 4.35366C18.5735 4.21927 18.1669 4.53126 18.1669 5.0505V12.5719C18.1669 13.0911 18.5735 13.621 19.075 13.7554L26.3401 15.702C26.8416 15.8364 27.2482 15.5244 27.2482 15.0052V7.48384C27.2482 6.9646 26.8416 6.43473 26.3401 6.30034ZM19.075 1.53315C17.0688 0.995592 15.4425 2.24353 15.4425 4.3205V11.8419C15.4425 13.9188 17.0688 16.0383 19.075 16.5759L26.3401 18.5226C28.3463 19.0601 29.9726 17.8122 29.9726 15.7352V8.21384C29.9726 6.13688 28.3463 4.01738 26.3401 3.47982L19.075 1.53315Z" fill="#1A2D4E"/>
<path opacity="0.7" fill-rule="evenodd" clip-rule="evenodd" d="M20.6359 12.4281L11.5545 9.99472C11.053 9.86033 10.6464 10.1723 10.6464 10.6916V20.0933C10.6464 20.6125 11.053 21.1424 11.5545 21.2768L20.6359 23.7101C21.1374 23.8445 21.544 23.5325 21.544 23.0133V13.6116C21.544 13.0923 21.1374 12.5624 20.6359 12.4281ZM11.5545 7.1742C9.54831 6.63664 7.92197 7.88458 7.92197 9.96155V19.3633C7.92197 21.4402 9.54831 23.5597 11.5545 24.0973L20.6359 26.5306C22.6421 27.0682 24.2684 25.8202 24.2684 23.7433V14.3416C24.2684 12.2646 22.6421 10.1451 20.6359 9.60754L11.5545 7.1742Z" fill="#1A2D4E"/>
<path fill-rule="evenodd" clip-rule="evenodd" d="M14.9302 18.5557L4.03253 15.6357C3.53099 15.5013 3.1244 15.8133 3.1244 16.3325V27.6146C3.1244 28.1338 3.53099 28.6637 4.03253 28.7981L14.9302 31.7181C15.4317 31.8525 15.8383 31.5405 15.8383 31.0213V19.7392C15.8383 19.22 15.4317 18.6901 14.9302 18.5557ZM4.03253 12.8152C2.02634 12.2776 0.399994 13.5256 0.399994 15.6025V26.8846C0.399994 28.9616 2.02634 31.0811 4.03253 31.6186L14.9302 34.5386C16.9364 35.0762 18.5627 33.8282 18.5627 31.7513V20.4692C18.5627 18.3923 16.9364 16.2728 14.9302 15.7352L4.03253 12.8152Z" fill="#1A2D4E"/>
</g>
<g opacity="0.84">
<path d="M40.63 24.456C41.484 24.848 42.464 25.044 43.57 25.044C44.676 25.044 45.642 24.855 46.468 24.477C47.308 24.085 47.959 23.539 48.421 22.839C48.883 22.125 49.114 21.292 49.114 20.34V20.088C49.114 19.206 48.911 18.492 48.505 17.946C48.099 17.386 47.581 16.973 46.951 16.707C46.335 16.441 45.698 16.308 45.04 16.308H44.263V15.972L48.694 13.62V10.05H38.278V12.444H45.712V12.78L40.966 15.3V18.24H43.906C44.382 18.24 44.809 18.31 45.187 18.45C45.565 18.576 45.866 18.779 46.09 19.059C46.314 19.339 46.426 19.703 46.426 20.151V20.361C46.426 21.019 46.174 21.565 45.67 21.999C45.18 22.433 44.48 22.65 43.57 22.65C42.674 22.65 41.953 22.419 41.407 21.957C40.861 21.481 40.588 20.851 40.588 20.067V19.773H37.9V20.151C37.9 21.159 38.138 22.034 38.614 22.776C39.104 23.504 39.776 24.064 40.63 24.456Z" fill="#1A2D4E"/>
<path fill-rule="evenodd" clip-rule="evenodd" d="M58.7824 10.617C58.0824 10.239 57.2704 10.05 56.3464 10.05H50.2984V24.75H53.0704V19.374H56.3464C57.2424 19.374 58.0404 19.192 58.7404 18.828C59.4544 18.45 60.0144 17.925 60.4204 17.253C60.8404 16.567 61.0504 15.769 61.0504 14.859V14.565C61.0504 13.641 60.8474 12.843 60.4414 12.171C60.0494 11.499 59.4964 10.981 58.7824 10.617ZM57.6694 16.308C57.2634 16.672 56.7314 16.854 56.0734 16.854H53.0704V12.57H56.0734C56.7314 12.57 57.2634 12.752 57.6694 13.116C58.0754 13.48 58.2784 13.977 58.2784 14.607V14.817C58.2784 15.447 58.0754 15.944 57.6694 16.308Z" fill="#1A2D4E"/>
<path fill-rule="evenodd" clip-rule="evenodd" d="M66.7161 25.044C65.6801 25.044 64.7491 24.834 63.9231 24.414C63.0971 23.994 62.4461 23.385 61.9701 22.587C61.4941 21.789 61.2561 20.83 61.2561 19.71V19.374C61.2561 18.254 61.4941 17.295 61.9701 16.497C62.4461 15.699 63.0971 15.09 63.9231 14.67C64.7491 14.25 65.6801 14.04 66.7161 14.04C67.7521 14.04 68.6831 14.25 69.5091 14.67C70.3351 15.09 70.9861 15.699 71.4621 16.497C71.9381 17.295 72.1761 18.254 72.1761 19.374V19.71C72.1761 20.83 71.9381 21.789 71.4621 22.587C70.9861 23.385 70.3351 23.994 69.5091 24.414C68.6831 24.834 67.7521 25.044 66.7161 25.044ZM66.7161 22.692C67.5281 22.692 68.2001 22.433 68.7321 21.915C69.2641 21.383 69.5301 20.627 69.5301 19.647V19.437C69.5301 18.457 69.2641 17.708 68.7321 17.19C68.2141 16.658 67.5421 16.392 66.7161 16.392C65.9041 16.392 65.2321 16.658 64.7001 17.19C64.1681 17.708 63.9021 18.457 63.9021 19.437V19.647C63.9021 20.627 64.1681 21.383 64.7001 21.915C65.2321 22.433 65.9041 22.692 66.7161 22.692Z" fill="#1A2D4E"/>
<path d="M77.3065 14.586C76.9565 14.782 76.7045 15.09 76.5505 15.51H76.1725V14.334H73.5685V24.75H76.2145V18.828C76.2145 18.086 76.4315 17.54 76.8655 17.19C77.2995 16.826 77.8525 16.644 78.5245 16.644H79.8265V16.6425H82.5247V22.398C82.5247 23.112 82.7347 23.686 83.1547 24.12C83.5887 24.54 84.1487 24.75 84.8347 24.75H87.7747V22.566H85.7587C85.3667 22.566 85.1707 22.356 85.1707 21.936V16.6425H88.0267V14.295H85.1707V11.1H82.5247V14.295H79.8265V14.292H78.5665C78.0905 14.292 77.6705 14.39 77.3065 14.586Z" fill="#1A2D4E"/>
<path fill-rule="evenodd" clip-rule="evenodd" d="M90.6108 24.666C91.1988 24.918 91.8638 25.044 92.6058 25.044C93.3338 25.044 93.9078 24.939 94.3278 24.729C94.7478 24.519 95.0558 24.281 95.2518 24.015C95.4478 23.735 95.5738 23.511 95.6298 23.343H96.0288V23.364C96.0288 23.784 96.1968 24.12 96.5328 24.372C96.8688 24.624 97.2958 24.75 97.8138 24.75H99.5778V22.566H98.7378C98.3458 22.566 98.1498 22.356 98.1498 21.936V18.051C98.1498 16.749 97.7508 15.755 96.9528 15.069C96.1548 14.383 95.0698 14.04 93.6978 14.04C92.8018 14.04 92.0388 14.18 91.4088 14.46C90.7928 14.726 90.2958 15.083 89.9178 15.531C89.5538 15.965 89.2878 16.448 89.1198 16.98L91.5558 17.799C91.6538 17.323 91.8638 16.938 92.1858 16.644C92.5078 16.336 92.9978 16.182 93.6558 16.182C94.3278 16.182 94.8178 16.343 95.1258 16.665C95.4338 16.973 95.5878 17.372 95.5878 17.862V18.45H92.7318C91.9478 18.45 91.2478 18.576 90.6318 18.828C90.0298 19.066 89.5538 19.43 89.2038 19.92C88.8678 20.396 88.6998 20.991 88.6998 21.705C88.6998 22.419 88.8678 23.028 89.2038 23.532C89.5538 24.022 90.0228 24.4 90.6108 24.666ZM94.8738 22.293C94.4118 22.699 93.8098 22.902 93.0678 22.902C92.5078 22.902 92.0808 22.783 91.7868 22.545C91.4928 22.307 91.3458 21.999 91.3458 21.621C91.3458 21.243 91.4858 20.949 91.7658 20.739C92.0458 20.529 92.4308 20.424 92.9208 20.424H95.5878V20.634C95.5878 21.32 95.3498 21.873 94.8738 22.293Z" fill="#1A2D4E"/>
<path d="M105.978 24.162C106.846 24.75 107.959 25.044 109.317 25.044C110.647 25.044 111.704 24.75 112.488 24.162C113.286 23.56 113.685 22.713 113.685 21.621C113.685 20.893 113.496 20.319 113.118 19.899C112.754 19.465 112.25 19.136 111.606 18.912C110.976 18.674 110.269 18.485 109.485 18.345L108.897 18.24C108.421 18.156 108.043 18.037 107.763 17.883C107.483 17.715 107.343 17.463 107.343 17.127C107.343 16.819 107.476 16.581 107.742 16.413C108.008 16.231 108.393 16.14 108.897 16.14C109.401 16.14 109.821 16.252 110.157 16.476C110.507 16.7 110.738 17.078 110.85 17.61L113.307 16.854C113.069 16.014 112.565 15.335 111.795 14.817C111.025 14.299 110.059 14.04 108.897 14.04C107.665 14.04 106.671 14.32 105.915 14.88C105.159 15.426 104.781 16.217 104.781 17.253C104.781 17.939 104.963 18.499 105.327 18.933C105.691 19.367 106.174 19.71 106.776 19.962C107.378 20.2 108.043 20.389 108.771 20.529L109.359 20.634C109.975 20.746 110.423 20.893 110.703 21.075C110.983 21.243 111.123 21.488 111.123 21.81C111.123 22.132 110.976 22.405 110.682 22.629C110.388 22.839 109.933 22.944 109.317 22.944C108.911 22.944 108.533 22.888 108.183 22.776C107.847 22.65 107.56 22.447 107.322 22.167C107.098 21.887 106.937 21.502 106.839 21.012L104.403 21.642C104.585 22.734 105.11 23.574 105.978 24.162Z" fill="#1A2D4E"/>
<path d="M100.462 24.75V10.05H103.108V24.75H100.462Z" fill="#1A2D4E"/>
</g>
</svg>
