<svg width="142" height="36" viewBox="0 0 142 36" fill="none" xmlns="http://www.w3.org/2000/svg">
<g opacity="0.84">
<path d="M19.5279 5.27488C17.1848 2.93173 13.3858 2.93173 11.0426 5.27488L2.55735 13.7602C0.214201 16.1033 0.214201 19.9023 2.55735 22.2454L11.0426 30.7307C13.3858 33.0739 17.1848 33.0739 19.5279 30.7307L23.5766 26.682C20.2061 25.3817 17.8151 22.1112 17.8151 18.2822C17.8151 14.3007 20.4005 10.923 23.9841 9.73649C23.914 9.66282 23.8429 9.58982 23.7705 9.51752L19.5279 5.27488Z" fill="#F62459"/>
<path opacity="0.7" d="M23.5768 26.6848C24.5816 27.0724 25.6734 27.2849 26.8149 27.2849C31.7854 27.2849 35.8149 23.2555 35.8149 18.2849C35.8149 13.3143 31.7854 9.28491 26.8149 9.28491C25.826 9.28491 24.8744 9.44439 23.9844 9.73903C28.4561 14.4401 28.385 21.8767 23.7709 26.4907L23.5768 26.6848Z" fill="#F62459"/>
</g>
<g opacity="0.84">
<path d="M53.0052 24.75L51.9117 21.6315H46.262L45.1482 24.75H42.05L47.5175 10.2105H50.879L56.306 24.75H53.0052ZM49.1172 13.572L47.1327 19.1813H51.0612L49.1172 13.572Z" fill="#F62459"/>
<path d="M59.8592 24.75H57.0242V10.2105H59.8592V24.75Z" fill="#F62459"/>
<path d="M72.3666 19.3433C72.3666 22.5428 70.4834 24.9525 67.5674 24.9525C66.2916 24.9525 65.1981 24.4058 64.3881 23.3528V28.6583H61.5734V13.9365H64.1654V15.516C64.9956 14.3618 66.1904 13.734 67.5674 13.734C70.4834 13.734 72.3666 16.164 72.3666 19.3433ZM69.4709 19.3433C69.4709 17.3183 68.3166 16.2248 66.9396 16.2248C65.5626 16.2248 64.4084 17.298 64.4084 19.3433C64.4084 21.3885 65.5626 22.4415 66.9396 22.4415C68.3166 22.4415 69.4709 21.4088 69.4709 19.3433Z" fill="#F62459"/>
<path d="M76.175 18.8573V24.75H73.3603V10.2105H76.175V15.354C76.9243 14.3618 77.8558 13.734 79.2733 13.734C81.44 13.734 82.9385 15.1515 82.9385 17.7638V24.75H80.144V18.7155C80.144 17.1158 79.5163 16.2248 78.2405 16.2248C77.1268 16.2248 76.175 17.1158 76.175 18.8573Z" fill="#F62459"/>
<path d="M90.9934 24.75V23.4135C90.2847 24.426 89.2114 24.9525 87.7332 24.9525C85.4854 24.9525 83.9869 23.6363 83.9869 21.6113C83.9869 19.5053 85.6879 18.3713 88.8469 18.3713C89.4544 18.3713 89.9809 18.4118 90.6492 18.4928V17.8448C90.6492 16.6298 89.9607 15.921 88.7862 15.921C87.5712 15.921 86.8422 16.6298 86.7409 17.8448H84.2097C84.3717 15.354 86.1739 13.734 88.7862 13.734C91.6212 13.734 93.2817 15.2933 93.2817 17.946V24.75H90.9934ZM86.6397 21.5303C86.6397 22.4415 87.2877 23.0085 88.3407 23.0085C89.7784 23.0085 90.6492 22.2188 90.6492 20.9633V20.1938C89.9809 20.0925 89.5152 20.052 89.0292 20.052C87.4294 20.052 86.6397 20.5583 86.6397 21.5303Z" fill="#F62459"/>
<path d="M105.168 24.75L102.454 14.5845L99.741 24.75H96.6225L92.8965 10.2105H95.8935L98.2425 20.0723L100.915 10.2105H104.054L106.646 20.1128L109.015 10.2105H112.033L108.286 24.75H105.168Z" fill="#F62459"/>
<path d="M118.344 24.75V23.4135C117.636 24.426 116.562 24.9525 115.084 24.9525C112.836 24.9525 111.338 23.6363 111.338 21.6113C111.338 19.5053 113.039 18.3713 116.198 18.3713C116.805 18.3713 117.332 18.4118 118 18.4928V17.8448C118 16.6298 117.312 15.921 116.137 15.921C114.922 15.921 114.193 16.6298 114.092 17.8448H111.561C111.723 15.354 113.525 13.734 116.137 13.734C118.972 13.734 120.633 15.2933 120.633 17.946V24.75H118.344ZM113.991 21.5303C113.991 22.4415 114.639 23.0085 115.692 23.0085C117.129 23.0085 118 22.2188 118 20.9633V20.1938C117.332 20.0925 116.866 20.052 116.38 20.052C114.78 20.052 113.991 20.5583 113.991 21.5303Z" fill="#F62459"/>
<path d="M131.613 13.9365L127.644 24.75H124.566L120.576 13.9365H123.614L126.186 21.5505L128.778 13.9365H131.613Z" fill="#F62459"/>
<path d="M136.36 24.9323C133.12 24.9323 130.953 22.6845 130.953 19.3028C130.953 16.083 133.201 13.734 136.32 13.734C139.742 13.734 142.01 16.5083 141.504 20.0318H133.829C134.011 21.7935 134.862 22.7655 136.299 22.7655C137.535 22.7655 138.365 22.158 138.689 21.0848H141.483C140.876 23.535 138.993 24.9323 136.36 24.9323ZM136.259 15.7995C134.943 15.7995 134.112 16.65 133.869 18.2498H138.527C138.446 16.7513 137.595 15.7995 136.259 15.7995Z" fill="#F62459"/>
</g>
</svg>
