<svg width="154" height="36" viewBox="0 0 154 36" fill="none" xmlns="http://www.w3.org/2000/svg">
<g opacity="0.84">
<path d="M11.5371 3.75C11.5371 9.65254 6.75215 14.4375 0.849609 14.4375V21.5625H11.5371V32.25H18.6621C18.6621 26.3475 23.4471 21.5625 29.3496 21.5625V14.4375H18.6621V3.75H11.5371Z" fill="white"/>
</g>
<g opacity="0.84">
<path d="M42.9996 25.0199C41.4096 25.0199 40.0446 24.6824 38.9046 24.0074C37.7646 23.3174 36.8871 22.3649 36.2721 21.1499C35.6571 19.9199 35.3496 18.5024 35.3496 16.8974C35.3496 15.2924 35.6571 13.8749 36.2721 12.6449C36.8871 11.4149 37.7646 10.4549 38.9046 9.76493C40.0446 9.07493 41.4096 8.72993 42.9996 8.72993C44.8896 8.72993 46.4346 9.20243 47.6346 10.1474C48.8496 11.0774 49.6071 12.3899 49.9071 14.0849H46.7346C46.5396 13.2299 46.1196 12.5624 45.4746 12.0824C44.8446 11.5874 44.0046 11.3399 42.9546 11.3399C41.4996 11.3399 40.3596 11.8349 39.5346 12.8249C38.7096 13.8149 38.2971 15.1724 38.2971 16.8974C38.2971 18.6224 38.7096 19.9799 39.5346 20.9699C40.3596 21.9449 41.4996 22.4324 42.9546 22.4324C44.0046 22.4324 44.8446 22.2074 45.4746 21.7574C46.1196 21.2924 46.5396 20.6549 46.7346 19.8449H49.9071C49.6071 21.4649 48.8496 22.7324 47.6346 23.6474C46.4346 24.5624 44.8896 25.0199 42.9996 25.0199Z" fill="white"/>
<path d="M51.039 24.7499V8.54993H53.919V24.7499H51.039Z" fill="white"/>
<path d="M60.6417 25.0199C59.5917 25.0199 58.6542 24.7649 57.8292 24.2549C57.0042 23.7449 56.3517 23.0474 55.8717 22.1624C55.3917 21.2774 55.1517 20.2724 55.1517 19.1474C55.1517 18.0224 55.3917 17.0249 55.8717 16.1549C56.3517 15.2699 57.0042 14.5799 57.8292 14.0849C58.6542 13.5749 59.5917 13.3199 60.6417 13.3199C61.4817 13.3199 62.2167 13.4774 62.8467 13.7924C63.4767 14.1074 63.9867 14.5499 64.3767 15.1199L64.5342 13.5899H67.2567V24.7499H64.5567L64.3767 23.1524C64.0167 23.6474 63.5367 24.0824 62.9367 24.4574C62.3517 24.8324 61.5867 25.0199 60.6417 25.0199ZM61.2492 22.4999C62.1792 22.4999 62.9367 22.1924 63.5217 21.5774C64.1217 20.9474 64.4217 20.1449 64.4217 19.1699C64.4217 18.1949 64.1217 17.3999 63.5217 16.7849C62.9367 16.1549 62.1792 15.8399 61.2492 15.8399C60.3342 15.8399 59.5767 16.1474 58.9767 16.7624C58.3767 17.3774 58.0767 18.1724 58.0767 19.1474C58.0767 20.1224 58.3767 20.9249 58.9767 21.5549C59.5767 22.1849 60.3342 22.4999 61.2492 22.4999Z" fill="white"/>
<path d="M68.8394 24.7499V13.5899H71.3819L71.6069 15.4799C71.9519 14.8199 72.4469 14.2949 73.0919 13.9049C73.7519 13.5149 74.5244 13.3199 75.4094 13.3199C76.7894 13.3199 77.8619 13.7549 78.6269 14.6249C79.3919 15.4949 79.7744 16.7699 79.7744 18.4499V24.7499H76.8944V18.7199C76.8944 17.7599 76.6994 17.0249 76.3094 16.5149C75.9194 16.0049 75.3119 15.7499 74.4869 15.7499C73.6769 15.7499 73.0094 16.0349 72.4844 16.6049C71.9744 17.1749 71.7194 17.9699 71.7194 18.9899V24.7499H68.8394Z" fill="white"/>
<path d="M86.3084 25.0199C85.2584 25.0199 84.3209 24.7649 83.4959 24.2549C82.6709 23.7449 82.0184 23.0474 81.5384 22.1624C81.0584 21.2774 80.8184 20.2724 80.8184 19.1474C80.8184 18.0224 81.0584 17.0249 81.5384 16.1549C82.0184 15.2699 82.6709 14.5799 83.4959 14.0849C84.3209 13.5749 85.2584 13.3199 86.3084 13.3199C87.1484 13.3199 87.8834 13.4774 88.5134 13.7924C89.1434 14.1074 89.6534 14.5499 90.0434 15.1199V8.54993H92.9234V24.7499H90.3584L90.0434 23.1524C89.6834 23.6474 89.2034 24.0824 88.6034 24.4574C88.0184 24.8324 87.2534 25.0199 86.3084 25.0199ZM86.9159 22.4999C87.8459 22.4999 88.6034 22.1924 89.1884 21.5774C89.7884 20.9474 90.0884 20.1449 90.0884 19.1699C90.0884 18.1949 89.7884 17.3999 89.1884 16.7849C88.6034 16.1549 87.8459 15.8399 86.9159 15.8399C86.0009 15.8399 85.2434 16.1474 84.6434 16.7624C84.0434 17.3774 83.7434 18.1724 83.7434 19.1474C83.7434 20.1224 84.0434 20.9249 84.6434 21.5549C85.2434 22.1849 86.0009 22.4999 86.9159 22.4999Z" fill="white"/>
<path d="M99.9286 25.0199C98.8036 25.0199 97.8061 24.7799 96.9361 24.2999C96.0661 23.8199 95.3836 23.1449 94.8886 22.2749C94.3936 21.4049 94.1461 20.3999 94.1461 19.2599C94.1461 18.1049 94.3861 17.0774 94.8661 16.1774C95.3611 15.2774 96.0361 14.5799 96.8911 14.0849C97.7611 13.5749 98.7811 13.3199 99.9511 13.3199C101.046 13.3199 102.014 13.5599 102.854 14.0399C103.694 14.5199 104.346 15.1799 104.811 16.0199C105.291 16.8449 105.531 17.7674 105.531 18.7874C105.531 18.9524 105.524 19.1249 105.509 19.3049C105.509 19.4849 105.501 19.6724 105.486 19.8674H97.0036C97.0636 20.7374 97.3636 21.4199 97.9036 21.9149C98.4586 22.4099 99.1261 22.6574 99.9061 22.6574C100.491 22.6574 100.979 22.5299 101.369 22.2749C101.774 22.0049 102.074 21.6599 102.269 21.2399H105.194C104.984 21.9449 104.631 22.5899 104.136 23.1749C103.656 23.7449 103.056 24.1949 102.336 24.5249C101.631 24.8549 100.829 25.0199 99.9286 25.0199ZM99.9511 15.6599C99.2461 15.6599 98.6236 15.8624 98.0836 16.2674C97.5436 16.6574 97.1986 17.2574 97.0486 18.0674H102.606C102.561 17.3324 102.291 16.7474 101.796 16.3124C101.301 15.8774 100.686 15.6599 99.9511 15.6599Z" fill="white"/>
<path d="M111.216 25.0199C110.226 25.0199 109.356 24.8624 108.606 24.5474C107.856 24.2174 107.256 23.7674 106.806 23.1974C106.356 22.6274 106.086 21.9674 105.996 21.2174H108.898C108.988 21.6524 109.228 22.0274 109.618 22.3424C110.023 22.6424 110.541 22.7924 111.171 22.7924C111.801 22.7924 112.258 22.6649 112.543 22.4099C112.843 22.1549 112.993 21.8624 112.993 21.5324C112.993 21.0524 112.783 20.7299 112.363 20.5649C111.943 20.3849 111.358 20.2124 110.608 20.0474C110.128 19.9424 109.641 19.8149 109.146 19.6649C108.651 19.5149 108.193 19.3274 107.773 19.1024C107.368 18.8624 107.038 18.5624 106.783 18.2024C106.528 17.8274 106.401 17.3699 106.401 16.8299C106.401 15.8399 106.791 15.0074 107.571 14.3324C108.366 13.6574 109.476 13.3199 110.901 13.3199C112.221 13.3199 113.271 13.6274 114.051 14.2424C114.846 14.8574 115.318 15.7049 115.468 16.7849H112.746C112.581 15.9599 111.958 15.5474 110.878 15.5474C110.338 15.5474 109.918 15.6524 109.618 15.8624C109.333 16.0724 109.191 16.3349 109.191 16.6499C109.191 16.9799 109.408 17.2424 109.843 17.4374C110.278 17.6324 110.856 17.8124 111.576 17.9774C112.356 18.1574 113.068 18.3599 113.713 18.5849C114.373 18.7949 114.898 19.1174 115.288 19.5524C115.678 19.9724 115.873 20.5799 115.873 21.3749C115.888 22.0649 115.708 22.6874 115.333 23.2424C114.958 23.7974 114.418 24.2324 113.713 24.5474C113.008 24.8624 112.176 25.0199 111.216 25.0199Z" fill="white"/>
<path d="M121.696 24.7499C120.526 24.7499 119.588 24.4649 118.883 23.8949C118.178 23.3249 117.826 22.3124 117.826 20.8574V15.9974H115.913V13.5899H117.826L118.163 10.5974H120.706V13.5899H123.721V15.9974H121.456C121.041 15.9974 120.706 16.3332 120.706 16.7474V20.8799C120.706 21.4199 120.818 21.7949 121.043 22.0049C121.283 22.1999 121.688 22.2974 122.258 22.2974H123.653V24.7499H121.696Z" fill="white"/>
<path d="M126.396 11.8574C125.871 11.8574 125.436 11.6999 125.091 11.3849C124.761 11.0699 124.596 10.6724 124.596 10.1924C124.596 9.71243 124.761 9.32243 125.091 9.02243C125.436 8.70743 125.871 8.54993 126.396 8.54993C126.921 8.54993 127.348 8.70743 127.678 9.02243C128.023 9.32243 128.196 9.71243 128.196 10.1924C128.196 10.6724 128.023 11.0699 127.678 11.3849C127.348 11.6999 126.921 11.8574 126.396 11.8574ZM124.956 24.7499V13.5899H127.836V24.7499H124.956Z" fill="white"/>
<path d="M129.492 24.7499V13.5899H132.034L132.259 15.4799C132.604 14.8199 133.099 14.2949 133.744 13.9049C134.404 13.5149 135.177 13.3199 136.062 13.3199C137.442 13.3199 138.514 13.7549 139.279 14.6249C140.044 15.4949 140.427 16.7699 140.427 18.4499V24.7499H137.547V18.7199C137.547 17.7599 137.352 17.0249 136.962 16.5149C136.572 16.0049 135.964 15.7499 135.139 15.7499C134.329 15.7499 133.662 16.0349 133.137 16.6049C132.627 17.1749 132.372 17.9699 132.372 18.9899V24.7499H129.492Z" fill="white"/>
<path d="M147.253 25.0199C146.128 25.0199 145.131 24.7799 144.261 24.2999C143.391 23.8199 142.708 23.1449 142.213 22.2749C141.718 21.4049 141.471 20.3999 141.471 19.2599C141.471 18.1049 141.711 17.0774 142.191 16.1774C142.686 15.2774 143.361 14.5799 144.216 14.0849C145.086 13.5749 146.106 13.3199 147.276 13.3199C148.371 13.3199 149.338 13.5599 150.178 14.0399C151.018 14.5199 151.671 15.1799 152.136 16.0199C152.616 16.8449 152.856 17.7674 152.856 18.7874C152.856 18.9524 152.848 19.1249 152.833 19.3049C152.833 19.4849 152.826 19.6724 152.811 19.8674H144.328C144.388 20.7374 144.688 21.4199 145.228 21.9149C145.783 22.4099 146.451 22.6574 147.231 22.6574C147.816 22.6574 148.303 22.5299 148.693 22.2749C149.098 22.0049 149.398 21.6599 149.593 21.2399H152.518C152.308 21.9449 151.956 22.5899 151.461 23.1749C150.981 23.7449 150.381 24.1949 149.661 24.5249C148.956 24.8549 148.153 25.0199 147.253 25.0199ZM147.276 15.6599C146.571 15.6599 145.948 15.8624 145.408 16.2674C144.868 16.6574 144.523 17.2574 144.373 18.0674H149.931C149.886 17.3324 149.616 16.7474 149.121 16.3124C148.626 15.8774 148.011 15.6599 147.276 15.6599Z" fill="white"/>
</g>
</svg>
