<svg width="117" height="36" viewBox="0 0 117 36" fill="none" xmlns="http://www.w3.org/2000/svg">
<g opacity="0.84">
<path fill-rule="evenodd" clip-rule="evenodd" d="M15.2 33C23.4843 33 30.2 26.2843 30.2 18C30.2 9.71574 23.4843 3 15.2 3C6.91569 3 0.199982 9.71574 0.199982 18C0.199982 26.2843 6.91569 33 15.2 33ZM19.8795 9.98763C20.1072 9.17854 19.3221 8.7001 18.605 9.21098L8.59482 16.3422C7.81714 16.8962 7.93947 18 8.77856 18H11.4145V17.9796H16.5519L12.3659 19.4566L10.5205 26.0124C10.2927 26.8215 11.0778 27.2999 11.795 26.789L21.8052 19.6579C22.5828 19.1038 22.4604 18 21.6214 18H17.6241L19.8795 9.98763Z" fill="#1A2D4E"/>
</g>
<g opacity="0.84">
<path d="M96.9474 12.654C97.2834 12.962 97.6894 13.116 98.1654 13.116C98.6554 13.116 99.0614 12.962 99.3834 12.654C99.7054 12.346 99.8664 11.94 99.8664 11.436C99.8664 10.932 99.7054 10.526 99.3834 10.218C99.0614 9.90998 98.6554 9.75598 98.1654 9.75598C97.6894 9.75598 97.2834 9.90998 96.9474 10.218C96.6254 10.526 96.4644 10.932 96.4644 11.436C96.4644 11.94 96.6254 12.346 96.9474 12.654Z" fill="#1A2D4E"/>
<path fill-rule="evenodd" clip-rule="evenodd" d="M46.688 24.288C46.03 24.596 45.26 24.75 44.378 24.75H37.7V10.05H44.294C45.19 10.05 45.967 10.204 46.625 10.512C47.297 10.806 47.815 11.233 48.179 11.793C48.557 12.339 48.746 12.997 48.746 13.767V13.977C48.746 14.649 48.62 15.202 48.368 15.636C48.116 16.056 47.815 16.385 47.465 16.623C47.129 16.847 46.807 17.008 46.499 17.106V17.484C46.807 17.568 47.143 17.729 47.507 17.967C47.871 18.191 48.179 18.52 48.431 18.954C48.697 19.388 48.83 19.955 48.83 20.655V20.865C48.83 21.677 48.641 22.377 48.263 22.965C47.885 23.539 47.36 23.98 46.688 24.288ZM45.512 19.059C45.148 18.765 44.658 18.618 44.042 18.618H40.472V22.23H44.042C44.644 22.23 45.127 22.083 45.491 21.789C45.869 21.495 46.058 21.075 46.058 20.529V20.319C46.058 19.773 45.876 19.353 45.512 19.059ZM45.428 13.011C45.064 12.717 44.588 12.57 44 12.57H40.472V16.098H44C44.574 16.098 45.043 15.951 45.407 15.657C45.785 15.363 45.974 14.957 45.974 14.439V14.229C45.974 13.697 45.792 13.291 45.428 13.011Z" fill="#1A2D4E"/>
<path fill-rule="evenodd" clip-rule="evenodd" d="M55.0816 25.044C54.0456 25.044 53.1146 24.834 52.2886 24.414C51.4626 23.994 50.8116 23.385 50.3356 22.587C49.8596 21.789 49.6216 20.83 49.6216 19.71V19.374C49.6216 18.254 49.8596 17.295 50.3356 16.497C50.8116 15.699 51.4626 15.09 52.2886 14.67C53.1146 14.25 54.0456 14.04 55.0816 14.04C56.1176 14.04 57.0486 14.25 57.8746 14.67C58.7006 15.09 59.3516 15.699 59.8276 16.497C60.3036 17.295 60.5416 18.254 60.5416 19.374V19.71C60.5416 20.83 60.3036 21.789 59.8276 22.587C59.3516 23.385 58.7006 23.994 57.8746 24.414C57.0486 24.834 56.1176 25.044 55.0816 25.044ZM55.0816 22.692C55.8936 22.692 56.5656 22.433 57.0976 21.915C57.6296 21.383 57.8956 20.627 57.8956 19.647V19.437C57.8956 18.457 57.6296 17.708 57.0976 17.19C56.5796 16.658 55.9076 16.392 55.0816 16.392C54.2696 16.392 53.5976 16.658 53.0656 17.19C52.5336 17.708 52.2676 18.457 52.2676 19.437V19.647C52.2676 20.627 52.5336 21.383 53.0656 21.915C53.5976 22.433 54.2696 22.692 55.0816 22.692Z" fill="#1A2D4E"/>
<path d="M70.4521 24.75C69.7661 24.75 69.2061 24.54 68.7721 24.12C68.3521 23.686 68.1421 23.112 68.1421 22.398V16.518H65.5381V14.334H68.1421V11.1H70.7881V14.334H73.6441V16.518H70.7881V21.936C70.7881 22.356 70.9841 22.566 71.3761 22.566H73.3921V24.75H70.4521Z" fill="#1A2D4E"/>
<path d="M75.9762 24.162C76.8442 24.75 77.9573 25.044 79.3153 25.044C80.6453 25.044 81.7023 24.75 82.4863 24.162C83.2842 23.56 83.6833 22.713 83.6833 21.621C83.6833 20.893 83.4943 20.319 83.1162 19.899C82.7523 19.465 82.2482 19.136 81.6042 18.912C80.9742 18.674 80.2673 18.485 79.4832 18.345L78.8952 18.24C78.4193 18.156 78.0412 18.037 77.7612 17.883C77.4813 17.715 77.3413 17.463 77.3413 17.127C77.3413 16.819 77.4742 16.581 77.7402 16.413C78.0062 16.231 78.3913 16.14 78.8952 16.14C79.3993 16.14 79.8193 16.252 80.1553 16.476C80.5052 16.7 80.7362 17.078 80.8482 17.61L83.3052 16.854C83.0672 16.014 82.5633 15.335 81.7933 14.817C81.0233 14.299 80.0572 14.04 78.8952 14.04C77.6632 14.04 76.6693 14.32 75.9132 14.88C75.1573 15.426 74.7793 16.217 74.7793 17.253C74.7793 17.939 74.9613 18.499 75.3253 18.933C75.6893 19.367 76.1723 19.71 76.7743 19.962C77.3763 20.2 78.0413 20.389 78.7692 20.529L79.3573 20.634C79.9733 20.746 80.4212 20.893 80.7012 21.075C80.9813 21.243 81.1213 21.488 81.1213 21.81C81.1213 22.132 80.9742 22.405 80.6802 22.629C80.3862 22.839 79.9313 22.944 79.3153 22.944C78.9093 22.944 78.5312 22.888 78.1813 22.776C77.8452 22.65 77.5583 22.447 77.3203 22.167C77.0962 21.887 76.9352 21.502 76.8372 21.012L74.4012 21.642C74.5833 22.734 75.1082 23.574 75.9762 24.162Z" fill="#1A2D4E"/>
<path d="M88.2699 17.211C87.8219 17.743 87.5979 18.492 87.5979 19.458V24.75H84.9519V10.05H87.5979V15.615H87.9759C88.0879 15.391 88.2629 15.167 88.5009 14.943C88.7389 14.719 89.0539 14.537 89.4459 14.397C89.8519 14.243 90.3629 14.166 90.9789 14.166C91.7909 14.166 92.4979 14.355 93.0999 14.733C93.7159 15.097 94.1919 15.608 94.5279 16.266C94.8639 16.91 95.0319 17.666 95.0319 18.534V24.75H92.3859V18.744C92.3859 17.96 92.1899 17.372 91.7979 16.98C91.4199 16.588 90.8739 16.392 90.1599 16.392C89.3479 16.392 88.7179 16.665 88.2699 17.211Z" fill="#1A2D4E"/>
<path d="M111.572 24.12C111.152 23.686 110.942 23.112 110.942 22.398V16.518H105.738V24.75H103.092V16.518H100.446V14.334H103.092V12.402C103.092 11.688 103.302 11.121 103.722 10.701C104.156 10.267 104.716 10.05 105.402 10.05H108.132V12.234H106.326C105.934 12.234 105.738 12.444 105.738 12.864V14.334H110.942V11.1H113.588V14.334H116.444V16.518H113.588V21.936C113.588 22.356 113.784 22.566 114.176 22.566H116.192V24.75H113.252C112.566 24.75 112.006 24.54 111.572 24.12Z" fill="#1A2D4E"/>
<path d="M96.8424 14.334V24.75H99.4884V14.334H96.8424Z" fill="#1A2D4E"/>
<path d="M61.934 10.05V24.75H64.58V10.05H61.934Z" fill="#1A2D4E"/>
</g>
</svg>
