<svg width="154" height="36" viewBox="0 0 154 36" fill="none" xmlns="http://www.w3.org/2000/svg">
<g opacity="0.84">
<path d="M11.5374 3.75C11.5374 9.65254 6.75249 14.4375 0.849945 14.4375V21.5625H11.5374V32.25H18.6624C18.6624 26.3475 23.4474 21.5625 29.3499 21.5625V14.4375H18.6624V3.75H11.5374Z" fill="#1A2D4E"/>
</g>
<g opacity="0.84">
<path d="M42.9999 25.0199C41.4099 25.0199 40.0449 24.6824 38.9049 24.0074C37.7649 23.3174 36.8874 22.3649 36.2724 21.1499C35.6574 19.9199 35.3499 18.5024 35.3499 16.8974C35.3499 15.2924 35.6574 13.8749 36.2724 12.6449C36.8874 11.4149 37.7649 10.4549 38.9049 9.76493C40.0449 9.07493 41.4099 8.72993 42.9999 8.72993C44.8899 8.72993 46.4349 9.20243 47.6349 10.1474C48.8499 11.0774 49.6074 12.3899 49.9074 14.0849H46.7349C46.5399 13.2299 46.1199 12.5624 45.4749 12.0824C44.8449 11.5874 44.0049 11.3399 42.9549 11.3399C41.4999 11.3399 40.3599 11.8349 39.5349 12.8249C38.7099 13.8149 38.2974 15.1724 38.2974 16.8974C38.2974 18.6224 38.7099 19.9799 39.5349 20.9699C40.3599 21.9449 41.4999 22.4324 42.9549 22.4324C44.0049 22.4324 44.8449 22.2074 45.4749 21.7574C46.1199 21.2924 46.5399 20.6549 46.7349 19.8449H49.9074C49.6074 21.4649 48.8499 22.7324 47.6349 23.6474C46.4349 24.5624 44.8899 25.0199 42.9999 25.0199Z" fill="#1A2D4E"/>
<path d="M51.0393 24.7499V8.54993H53.9193V24.7499H51.0393Z" fill="#1A2D4E"/>
<path d="M60.642 25.0199C59.5921 25.0199 58.6546 24.7649 57.8296 24.2549C57.0046 23.7449 56.3521 23.0474 55.8721 22.1624C55.3921 21.2774 55.1521 20.2724 55.1521 19.1474C55.1521 18.0224 55.3921 17.0249 55.8721 16.1549C56.3521 15.2699 57.0046 14.5799 57.8296 14.0849C58.6546 13.5749 59.5921 13.3199 60.642 13.3199C61.482 13.3199 62.217 13.4774 62.847 13.7924C63.477 14.1074 63.987 14.5499 64.3771 15.1199L64.5345 13.5899H67.257V24.7499H64.5571L64.3771 23.1524C64.017 23.6474 63.5371 24.0824 62.9371 24.4574C62.3521 24.8324 61.587 25.0199 60.642 25.0199ZM61.2496 22.4999C62.1796 22.4999 62.937 22.1924 63.5221 21.5774C64.122 20.9474 64.4221 20.1449 64.4221 19.1699C64.4221 18.1949 64.122 17.3999 63.5221 16.7849C62.937 16.1549 62.1796 15.8399 61.2496 15.8399C60.3346 15.8399 59.5771 16.1474 58.9771 16.7624C58.3771 17.3774 58.0771 18.1724 58.0771 19.1474C58.0771 20.1224 58.3771 20.9249 58.9771 21.5549C59.5771 22.1849 60.3346 22.4999 61.2496 22.4999Z" fill="#1A2D4E"/>
<path d="M68.8398 24.7499V13.5899H71.3823L71.6073 15.4799C71.9523 14.8199 72.4473 14.2949 73.0923 13.9049C73.7523 13.5149 74.5248 13.3199 75.4098 13.3199C76.7898 13.3199 77.8623 13.7549 78.6273 14.6249C79.3923 15.4949 79.7748 16.7699 79.7748 18.4499V24.7499H76.8948V18.7199C76.8948 17.7599 76.6998 17.0249 76.3098 16.5149C75.9198 16.0049 75.3123 15.7499 74.4873 15.7499C73.6773 15.7499 73.0098 16.0349 72.4848 16.6049C71.9748 17.1749 71.7198 17.9699 71.7198 18.9899V24.7499H68.8398Z" fill="#1A2D4E"/>
<path d="M86.3087 25.0199C85.2587 25.0199 84.3212 24.7649 83.4962 24.2549C82.6712 23.7449 82.0187 23.0474 81.5387 22.1624C81.0587 21.2774 80.8187 20.2724 80.8187 19.1474C80.8187 18.0224 81.0587 17.0249 81.5387 16.1549C82.0187 15.2699 82.6712 14.5799 83.4962 14.0849C84.3212 13.5749 85.2587 13.3199 86.3087 13.3199C87.1487 13.3199 87.8837 13.4774 88.5137 13.7924C89.1437 14.1074 89.6537 14.5499 90.0437 15.1199V8.54993H92.9237V24.7499H90.3587L90.0437 23.1524C89.6837 23.6474 89.2037 24.0824 88.6037 24.4574C88.0187 24.8324 87.2537 25.0199 86.3087 25.0199ZM86.9162 22.4999C87.8462 22.4999 88.6037 22.1924 89.1887 21.5774C89.7887 20.9474 90.0887 20.1449 90.0887 19.1699C90.0887 18.1949 89.7887 17.3999 89.1887 16.7849C88.6037 16.1549 87.8462 15.8399 86.9162 15.8399C86.0012 15.8399 85.2437 16.1474 84.6437 16.7624C84.0437 17.3774 83.7437 18.1724 83.7437 19.1474C83.7437 20.1224 84.0437 20.9249 84.6437 21.5549C85.2437 22.1849 86.0012 22.4999 86.9162 22.4999Z" fill="#1A2D4E"/>
<path d="M99.929 25.0199C98.804 25.0199 97.8065 24.7799 96.9365 24.2999C96.0665 23.8199 95.384 23.1449 94.889 22.2749C94.394 21.4049 94.1465 20.3999 94.1465 19.2599C94.1465 18.1049 94.3865 17.0774 94.8665 16.1774C95.3615 15.2774 96.0365 14.5799 96.8915 14.0849C97.7615 13.5749 98.7815 13.3199 99.9515 13.3199C101.046 13.3199 102.014 13.5599 102.854 14.0399C103.694 14.5199 104.346 15.1799 104.811 16.0199C105.291 16.8449 105.531 17.7674 105.531 18.7874C105.531 18.9524 105.524 19.1249 105.509 19.3049C105.509 19.4849 105.501 19.6724 105.486 19.8674H97.004C97.064 20.7374 97.364 21.4199 97.904 21.9149C98.459 22.4099 99.1265 22.6574 99.9065 22.6574C100.491 22.6574 100.979 22.5299 101.369 22.2749C101.774 22.0049 102.074 21.6599 102.269 21.2399H105.194C104.984 21.9449 104.631 22.5899 104.136 23.1749C103.656 23.7449 103.056 24.1949 102.336 24.5249C101.631 24.8549 100.829 25.0199 99.929 25.0199ZM99.9515 15.6599C99.2465 15.6599 98.624 15.8624 98.084 16.2674C97.544 16.6574 97.199 17.2574 97.049 18.0674H102.606C102.561 17.3324 102.291 16.7474 101.796 16.3124C101.301 15.8774 100.686 15.6599 99.9515 15.6599Z" fill="#1A2D4E"/>
<path d="M111.216 25.0199C110.226 25.0199 109.356 24.8624 108.606 24.5474C107.856 24.2174 107.256 23.7674 106.806 23.1974C106.356 22.6274 106.086 21.9674 105.996 21.2174H108.899C108.989 21.6524 109.229 22.0274 109.619 22.3424C110.024 22.6424 110.541 22.7924 111.171 22.7924C111.801 22.7924 112.259 22.6649 112.544 22.4099C112.844 22.1549 112.994 21.8624 112.994 21.5324C112.994 21.0524 112.784 20.7299 112.364 20.5649C111.944 20.3849 111.359 20.2124 110.609 20.0474C110.129 19.9424 109.641 19.8149 109.146 19.6649C108.651 19.5149 108.194 19.3274 107.774 19.1024C107.369 18.8624 107.039 18.5624 106.784 18.2024C106.529 17.8274 106.401 17.3699 106.401 16.8299C106.401 15.8399 106.791 15.0074 107.571 14.3324C108.366 13.6574 109.476 13.3199 110.901 13.3199C112.221 13.3199 113.271 13.6274 114.051 14.2424C114.846 14.8574 115.319 15.7049 115.469 16.7849H112.746C112.581 15.9599 111.959 15.5474 110.879 15.5474C110.339 15.5474 109.919 15.6524 109.619 15.8624C109.334 16.0724 109.191 16.3349 109.191 16.6499C109.191 16.9799 109.409 17.2424 109.844 17.4374C110.279 17.6324 110.856 17.8124 111.576 17.9774C112.356 18.1574 113.069 18.3599 113.714 18.5849C114.374 18.7949 114.899 19.1174 115.289 19.5524C115.679 19.9724 115.874 20.5799 115.874 21.3749C115.889 22.0649 115.709 22.6874 115.334 23.2424C114.959 23.7974 114.419 24.2324 113.714 24.5474C113.009 24.8624 112.176 25.0199 111.216 25.0199Z" fill="#1A2D4E"/>
<path d="M121.696 24.7499C120.526 24.7499 119.588 24.4649 118.883 23.8949C118.178 23.3249 117.826 22.3124 117.826 20.8574V15.9974H115.913V13.5899H117.826L118.163 10.5974H120.706V13.5899H123.721V15.9974H121.456C121.042 15.9974 120.706 16.3332 120.706 16.7474V20.8799C120.706 21.4199 120.818 21.7949 121.043 22.0049C121.283 22.1999 121.688 22.2974 122.258 22.2974H123.653V24.7499H121.696Z" fill="#1A2D4E"/>
<path d="M126.396 11.8574C125.871 11.8574 125.436 11.6999 125.091 11.3849C124.761 11.0699 124.596 10.6724 124.596 10.1924C124.596 9.71243 124.761 9.32243 125.091 9.02243C125.436 8.70743 125.871 8.54993 126.396 8.54993C126.921 8.54993 127.349 8.70743 127.679 9.02243C128.024 9.32243 128.196 9.71243 128.196 10.1924C128.196 10.6724 128.024 11.0699 127.679 11.3849C127.349 11.6999 126.921 11.8574 126.396 11.8574ZM124.956 24.7499V13.5899H127.836V24.7499H124.956Z" fill="#1A2D4E"/>
<path d="M129.492 24.7499V13.5899H132.035L132.26 15.4799C132.605 14.8199 133.1 14.2949 133.745 13.9049C134.405 13.5149 135.177 13.3199 136.062 13.3199C137.442 13.3199 138.515 13.7549 139.28 14.6249C140.045 15.4949 140.427 16.7699 140.427 18.4499V24.7499H137.547V18.7199C137.547 17.7599 137.352 17.0249 136.962 16.5149C136.572 16.0049 135.965 15.7499 135.14 15.7499C134.33 15.7499 133.662 16.0349 133.137 16.6049C132.627 17.1749 132.372 17.9699 132.372 18.9899V24.7499H129.492Z" fill="#1A2D4E"/>
<path d="M147.254 25.0199C146.129 25.0199 145.131 24.7799 144.261 24.2999C143.391 23.8199 142.709 23.1449 142.214 22.2749C141.719 21.4049 141.471 20.3999 141.471 19.2599C141.471 18.1049 141.711 17.0774 142.191 16.1774C142.686 15.2774 143.361 14.5799 144.216 14.0849C145.086 13.5749 146.106 13.3199 147.276 13.3199C148.371 13.3199 149.339 13.5599 150.179 14.0399C151.019 14.5199 151.671 15.1799 152.136 16.0199C152.616 16.8449 152.856 17.7674 152.856 18.7874C152.856 18.9524 152.849 19.1249 152.834 19.3049C152.834 19.4849 152.826 19.6724 152.811 19.8674H144.329C144.389 20.7374 144.689 21.4199 145.229 21.9149C145.784 22.4099 146.451 22.6574 147.231 22.6574C147.816 22.6574 148.304 22.5299 148.694 22.2749C149.099 22.0049 149.399 21.6599 149.594 21.2399H152.519C152.309 21.9449 151.956 22.5899 151.461 23.1749C150.981 23.7449 150.381 24.1949 149.661 24.5249C148.956 24.8549 148.154 25.0199 147.254 25.0199ZM147.276 15.6599C146.571 15.6599 145.949 15.8624 145.409 16.2674C144.869 16.6574 144.524 17.2574 144.374 18.0674H149.931C149.886 17.3324 149.616 16.7474 149.121 16.3124C148.626 15.8774 148.011 15.6599 147.276 15.6599Z" fill="#1A2D4E"/>
</g>
</svg>
